<?xml version="1.0" encoding="UTF-8" standalone="no"?>
<!-- Created with Inkscape (http://www.inkscape.org/) -->

<svg
   xmlns:dc="http://purl.org/dc/elements/1.1/"
   xmlns:cc="http://creativecommons.org/ns#"
   xmlns:rdf="http://www.w3.org/1999/02/22-rdf-syntax-ns#"
   xmlns:svg="http://www.w3.org/2000/svg"
   xmlns="http://www.w3.org/2000/svg"
   xmlns:sodipodi="http://sodipodi.sourceforge.net/DTD/sodipodi-0.dtd"
   xmlns:inkscape="http://www.inkscape.org/namespaces/inkscape"
   width="210mm"
   height="297mm"
   viewBox="0 0 210 297"
   version="1.1"
   id="svg4727"
   inkscape:version="0.92.3 (2405546, 2018-03-11)"
   sodipodi:docname="logo-basic.svg">
  <defs
     id="defs4721" />
  <sodipodi:namedview
     id="base"
     pagecolor="#ffffff"
     bordercolor="#666666"
     borderopacity="1.0"
     inkscape:pageopacity="0.0"
     inkscape:pageshadow="2"
     inkscape:zoom="0.35"
     inkscape:cx="-195.71429"
     inkscape:cy="560"
     inkscape:document-units="mm"
     inkscape:current-layer="layer1"
     showgrid="false"
     inkscape:window-width="1871"
     inkscape:window-height="1019"
     inkscape:window-x="1969"
     inkscape:window-y="27"
     inkscape:window-maximized="1" />
  <metadata
     id="metadata4724">
    <rdf:RDF>
      <cc:Work
         rdf:about="">
        <dc:format>image/svg+xml</dc:format>
        <dc:type
           rdf:resource="http://purl.org/dc/dcmitype/StillImage" />
        <dc:title></dc:title>
      </cc:Work>
    </rdf:RDF>
  </metadata>
  <g
     inkscape:label="Layer 1"
     inkscape:groupmode="layer"
     id="layer1">
    <g
       id="g1504"
       transform="matrix(0.48901153,0,0,0.48901153,203.74589,176.92203)"
       style="opacity:0.98999999">
      <path
         d="m -312.53739,-34.638872 c -4.48209,4.483006 -11.74964,4.483006 -16.23172,0 -4.48282,-4.482087 -4.48282,-11.750188 0,-16.232459 4.48208,-4.481353 11.74963,-4.481353 16.23172,0.0015 4.48282,4.480802 4.48282,11.748903 0,16.23099"
         style="fill:#ffffff;fill-opacity:1;fill-rule:nonzero;stroke:none;stroke-width:0.18367705"
         id="path897"
         inkscape:connector-curvature="0" />
      <path
         d="m -337.11926,-59.22129 c -4.48208,4.482822 -11.75018,4.482822 -16.2317,0 -4.48288,-4.481536 -4.48288,-11.749637 0,-16.232459 4.48152,-4.482271 11.74962,-4.482271 16.2317,0 4.48283,4.482822 4.48283,11.750923 0,16.232459"
         style="fill:#ffffff;fill-opacity:1;fill-rule:nonzero;stroke:none;stroke-width:0.18367705"
         id="path899"
         inkscape:connector-curvature="0" />
      <path
         d="m -338.03764,-25.370271 c -4.79489,-4.794228 -7.41229,-11.440398 -7.17994,-18.23002 l 1.60075,0.05382 c -0.21656,6.34843 2.23002,12.559653 6.71211,17.042567 8.96142,8.961438 23.54152,8.961438 32.50294,0 8.96068,-8.960042 8.96068,-23.540877 0,-32.502297 -4.30925,-4.309247 -10.21704,-6.736356 -16.30556,-6.725702 -0.27919,4.288491 -1.65879,8.37604 -3.98855,11.911824 4.17222,-1.518275 9.03452,-0.607053 12.37377,2.733665 4.59487,4.594682 4.59487,12.069603 0,16.662815 -4.59339,4.59413 -12.0674,4.59413 -16.66226,0 -4.59395,-4.593212 -4.59395,-12.068133 0,-16.661529 4.12924,-4.12906 6.51263,-9.62082 6.71284,-15.46175 l 0.0252,-0.747015 0.74756,-0.02571 c 6.78962,-0.232535 13.43433,2.384863 18.22995,7.180487 9.58574,9.587207 9.58574,25.183226 0,34.768853 -9.58555,9.585646 -25.18304,9.585646 -34.76878,0 z m 10.18691,-24.582675 c -3.96981,3.969261 -3.96981,10.426612 0,14.395689 3.96853,3.969996 10.42661,3.969996 14.39643,0 3.96907,-3.969077 3.96852,-10.426428 0,-14.395689 -3.96982,-3.969812 -10.4279,-3.969812 -14.39643,0"
         style="fill:#100f0d;fill-opacity:1;fill-rule:nonzero;stroke:none;stroke-width:0.18367705"
         id="path901"
         inkscape:connector-curvature="0" />
      <path
         d="m -338.03764,-25.370271 c -4.79489,-4.794228 -7.41229,-11.440398 -7.17994,-18.23002 l 1.60075,0.05382 c -0.21656,6.34843 2.23002,12.559653 6.71211,17.042567 8.96142,8.961438 23.54152,8.961438 32.50294,0 8.96068,-8.960042 8.96068,-23.540877 0,-32.502297 -4.30925,-4.309247 -10.21704,-6.736356 -16.30556,-6.725702 -0.27919,4.288491 -1.65879,8.37604 -3.98855,11.911824 4.17222,-1.518275 9.03452,-0.607053 12.37377,2.733665 4.59487,4.594682 4.59487,12.069603 0,16.662815 -4.59339,4.59413 -12.0674,4.59413 -16.66226,0 -4.59395,-4.593212 -4.59395,-12.068133 0,-16.661529 4.12924,-4.12906 6.51263,-9.62082 6.71284,-15.46175 l 0.0252,-0.747015 0.74756,-0.02571 c 6.78962,-0.232535 13.43433,2.384863 18.22995,7.180487 9.58574,9.587207 9.58574,25.183226 0,34.768853 -9.58555,9.585646 -25.18304,9.585646 -34.76878,0 z m 10.18691,-24.582675 c -3.96981,3.969261 -3.96981,10.426612 0,14.395689 3.96853,3.969996 10.42661,3.969996 14.39643,0 3.96907,-3.969077 3.96852,-10.426428 0,-14.395689 -3.96982,-3.969812 -10.4279,-3.969812 -14.39643,0 z"
         style="fill:none;stroke:#100f0d;stroke-width:1.33765566;stroke-linecap:butt;stroke-linejoin:miter;stroke-miterlimit:10;stroke-dasharray:none;stroke-opacity:1"
         id="path903"
         inkscape:connector-curvature="0" />
      <path
         d="m -362.62019,-49.952946 c -9.58565,-9.586289 -9.58565,-25.182307 0,-34.76878 9.58637,-9.585554 25.18317,-9.585554 34.76946,0 4.79581,4.796543 7.41247,11.440509 7.17994,18.230682 l -1.60075,-0.0551 c 0.21748,-6.347695 -2.22929,-12.559653 -6.71284,-17.041924 -8.96069,-8.960685 -23.54147,-8.961419 -32.50219,0 -8.96143,8.960869 -8.96143,23.54152 0,32.50294 4.30925,4.308513 10.21702,6.73507 16.30628,6.725151 0.27699,-4.287022 1.65897,-8.37751 3.98726,-11.911089 -4.17094,1.51607 -9.03324,0.604849 -12.37318,-2.735135 -4.59479,-4.593212 -4.59479,-12.068133 -10e-4,-16.662814 4.5948,-4.593396 12.07027,-4.593396 16.66366,0 4.59413,4.593946 4.59413,12.069602 -7.3e-4,16.662814 -4.12833,4.129244 -6.5119,9.619351 -6.71211,15.45973 l -0.0252,0.748484 -0.7483,0.02498 c -6.78963,0.23327 -13.43422,-2.383393 -18.2299,-7.179936 z m 24.58255,-24.582418 c -3.96834,-3.969261 -10.42643,-3.969261 -14.39637,0 -3.96843,3.969078 -3.96843,10.427163 0,14.39624 3.96994,3.969261 10.42803,3.969261 14.39637,0 3.96981,-3.969077 3.96981,-10.427162 0,-14.39624"
         style="fill:#100f0d;fill-opacity:1;fill-rule:nonzero;stroke:none;stroke-width:0.18367705"
         id="path905"
         inkscape:connector-curvature="0" />
      <path
         d="m -362.62019,-49.952946 c -9.58565,-9.586289 -9.58565,-25.182307 0,-34.76878 9.58637,-9.585554 25.18317,-9.585554 34.76946,0 4.79581,4.796543 7.41247,11.440509 7.17994,18.230682 l -1.60075,-0.0551 c 0.21748,-6.347695 -2.22929,-12.559653 -6.71284,-17.041924 -8.96069,-8.960685 -23.54147,-8.961419 -32.50219,0 -8.96143,8.960869 -8.96143,23.54152 0,32.50294 4.30925,4.308513 10.21702,6.73507 16.30628,6.725151 0.27699,-4.287022 1.65897,-8.37751 3.98726,-11.911089 -4.17094,1.51607 -9.03324,0.604849 -12.37318,-2.735135 -4.59479,-4.593212 -4.59479,-12.068133 -10e-4,-16.662814 4.5948,-4.593396 12.07027,-4.593396 16.66366,0 4.59413,4.593946 4.59413,12.069602 -7.3e-4,16.662814 -4.12833,4.129244 -6.5119,9.619351 -6.71211,15.45973 l -0.0252,0.748484 -0.7483,0.02498 c -6.78963,0.23327 -13.43422,-2.383393 -18.2299,-7.179936 z m 24.58255,-24.582418 c -3.96834,-3.969261 -10.42643,-3.969261 -14.39637,0 -3.96843,3.969078 -3.96843,10.427163 0,14.39624 3.96994,3.969261 10.42803,3.969261 14.39637,0 3.96981,-3.969077 3.96981,-10.427162 0,-14.39624 z"
         style="fill:none;stroke:#100f0d;stroke-width:1.33765566;stroke-linecap:butt;stroke-linejoin:miter;stroke-miterlimit:10;stroke-dasharray:none;stroke-opacity:1"
         id="path907"
         inkscape:connector-curvature="0" />
      <path
         d="m -263.05718,-61.265432 c -1.69828,1.927875 -3.53431,3.213614 -5.92211,3.213614 -6.15116,0 -10.46684,-2.938098 -10.46684,-11.110441 V -81.00649 c 0,-8.17069 4.31568,-11.108788 10.46684,-11.108788 6.47388,0 9.96227,3.717991 10.19187,11.247281 h -6.33539 c 0,-4.269757 -1.56126,-5.6466 -3.85648,-5.6466 -2.52409,0 -4.13127,1.010224 -4.13127,4.682295 v 13.49659 c 0,3.67299 1.60718,4.683214 4.13127,4.683214 2.3878,0 3.85648,-1.744381 3.85648,-4.591376 v -2.019713 h -4.4527 v -5.233326 h 10.78809 v 16.985902 h -3.30545 l -0.96431,-2.754421"
         style="fill:#100f0d;fill-opacity:1;fill-rule:nonzero;stroke:none;stroke-width:0.18367705"
         id="path909"
         inkscape:connector-curvature="0" />
      <path
         d="m -263.05718,-61.265432 c -1.69828,1.927875 -3.53431,3.213614 -5.92211,3.213614 -6.15116,0 -10.46684,-2.938098 -10.46684,-11.110441 V -81.00649 c 0,-8.17069 4.31568,-11.108788 10.46684,-11.108788 6.47388,0 9.96227,3.717991 10.19187,11.247281 h -6.33539 c 0,-4.269757 -1.56126,-5.6466 -3.85648,-5.6466 -2.52409,0 -4.13127,1.010224 -4.13127,4.682295 v 13.49659 c 0,3.67299 1.60718,4.683214 4.13127,4.683214 2.3878,0 3.85648,-1.744381 3.85648,-4.591376 v -2.019713 h -4.4527 v -5.233326 h 10.78809 v 16.985902 h -3.30545 z"
         style="fill:none;stroke:#100f0d;stroke-width:0.64286965;stroke-linecap:butt;stroke-linejoin:miter;stroke-miterlimit:10;stroke-dasharray:none;stroke-opacity:1"
         id="path911"
         inkscape:connector-curvature="0" />
      <path
         d="m -254.51271,-91.656085 h 5.78455 v 33.145074 h -5.78455 v -33.145074"
         style="fill:#100f0d;fill-opacity:1;fill-rule:nonzero;stroke:none;stroke-width:0.18367705"
         id="path913"
         inkscape:connector-curvature="0" />
      <path
         d="m -254.51271,-91.656085 h 5.78455 v 33.145074 h -5.78455 z"
         style="fill:none;stroke:#100f0d;stroke-width:0.64286965;stroke-linecap:butt;stroke-linejoin:miter;stroke-miterlimit:10;stroke-dasharray:none;stroke-opacity:1"
         id="path915"
         inkscape:connector-curvature="0" />
      <path
         d="m -239.26806,-66.0403 c 0,1.928609 1.37758,2.938098 3.39729,2.938098 2.01971,0 3.39729,-1.009489 3.39729,-2.938098 v -9.915806 c 0,-1.927874 -1.37758,-2.938098 -3.39729,-2.938098 -2.01971,0 -3.39729,1.010224 -3.39729,2.938098 z m -5.78454,-8.446389 c 0,-6.610905 3.39729,-9.457164 9.18183,-9.457164 5.78436,0 9.18165,2.846259 9.18165,9.457164 v 6.977523 c 0,6.611089 -3.39729,9.457348 -9.18165,9.457348 -5.78454,0 -9.18183,-2.846259 -9.18183,-9.457348 v -6.977523"
         style="fill:#100f0d;fill-opacity:1;fill-rule:nonzero;stroke:none;stroke-width:0.18367705"
         id="path917"
         inkscape:connector-curvature="0" />
      <path
         d="m -239.26806,-66.0403 c 0,1.928609 1.37758,2.938098 3.39729,2.938098 2.01971,0 3.39729,-1.009489 3.39729,-2.938098 v -9.915806 c 0,-1.927874 -1.37758,-2.938098 -3.39729,-2.938098 -2.01971,0 -3.39729,1.010224 -3.39729,2.938098 z m -5.78454,-8.446389 c 0,-6.610905 3.39729,-9.457164 9.18183,-9.457164 5.78436,0 9.18165,2.846259 9.18165,9.457164 v 6.977523 c 0,6.611089 -3.39729,9.457348 -9.18165,9.457348 -5.78454,0 -9.18183,-2.846259 -9.18183,-9.457348 z"
         style="fill:none;stroke:#100f0d;stroke-width:0.64286965;stroke-linecap:butt;stroke-linejoin:miter;stroke-miterlimit:10;stroke-dasharray:none;stroke-opacity:1"
         id="path919"
         inkscape:connector-curvature="0" />
      <path
         d="m -216.99722,-64.15761 c 1.14798,1.23982 2.20412,1.790116 3.48913,1.790116 1.56125,0 2.84626,-1.009489 2.84626,-5.968218 v -5.325165 c 0,-4.957811 -1.28501,-5.968035 -2.84626,-5.968035 -1.28501,0 -2.34115,0.551031 -3.48913,1.790117 z m -5.78454,5.646599 v -33.145074 h 5.78454 v 10.465918 c 2.75442,-2.019713 4.22384,-2.753686 5.78436,-2.753686 4.49935,0 6.33539,3.488394 6.33539,9.916356 v 6.059139 c 0,6.428146 -1.83604,9.91654 -6.33539,9.91654 -2.57075,0 -5.14094,-1.927874 -6.15171,-3.488394 h -0.0918 v 3.029201 h -5.32535"
         style="fill:#100f0d;fill-opacity:1;fill-rule:nonzero;stroke:none;stroke-width:0.18367705"
         id="path921"
         inkscape:connector-curvature="0" />
      <path
         d="m -216.99722,-64.15761 c 1.14798,1.23982 2.20412,1.790116 3.48913,1.790116 1.56125,0 2.84626,-1.009489 2.84626,-5.968218 v -5.325165 c 0,-4.957811 -1.28501,-5.968035 -2.84626,-5.968035 -1.28501,0 -2.34115,0.551031 -3.48913,1.790117 z m -5.78454,5.646599 v -33.145074 h 5.78454 v 10.465918 c 2.75442,-2.019713 4.22384,-2.753686 5.78436,-2.753686 4.49935,0 6.33539,3.488394 6.33539,9.916356 v 6.059139 c 0,6.428146 -1.83604,9.91654 -6.33539,9.91654 -2.57075,0 -5.14094,-1.927874 -6.15171,-3.488394 h -0.0918 v 3.029201 z"
         style="fill:none;stroke:#100f0d;stroke-width:0.64286965;stroke-linecap:butt;stroke-linejoin:miter;stroke-miterlimit:10;stroke-dasharray:none;stroke-opacity:1"
         id="path923"
         inkscape:connector-curvature="0" />
      <path
         d="m -189.53897,-70.722779 c -3.44192,1.193901 -6.93105,3.121775 -6.93105,5.739173 0,1.651808 1.01022,2.616112 2.57074,2.616112 1.74365,0 2.98273,-0.918385 4.36031,-2.295228 z m -11.98217,-5.462923 c 0.41401,-5.554761 4.63711,-7.758151 9.27367,-7.758151 6.15171,0 8.49359,3.121775 8.49359,7.574474 v 15.838656 c 0,0.688789 0.13776,1.376108 0.32144,2.019712 h -5.7851 c -0.13628,-0.643604 -0.22959,-1.424231 -0.41253,-2.432986 -1.69902,1.697544 -3.99498,2.892179 -6.88661,2.892179 -3.48913,0 -5.73844,-1.927874 -5.73844,-5.967484 0,-5.785092 5.50885,-8.263997 12.71615,-10.422203 v -1.83677 c 0,-2.156736 -1.33092,-2.983283 -2.98273,-2.983283 -1.74548,0 -3.21435,1.285005 -3.21435,3.075856 h -5.78509"
         style="fill:#100f0d;fill-opacity:1;fill-rule:nonzero;stroke:none;stroke-width:0.18367705"
         id="path925"
         inkscape:connector-curvature="0" />
      <path
         d="m -189.53897,-70.722779 c -3.44192,1.193901 -6.93105,3.121775 -6.93105,5.739173 0,1.651808 1.01022,2.616112 2.57074,2.616112 1.74365,0 2.98273,-0.918385 4.36031,-2.295228 z m -11.98217,-5.462923 c 0.41401,-5.554761 4.63711,-7.758151 9.27367,-7.758151 6.15171,0 8.49359,3.121775 8.49359,7.574474 v 15.838656 c 0,0.688789 0.13776,1.376108 0.32144,2.019712 h -5.7851 c -0.13628,-0.643604 -0.22959,-1.424231 -0.41253,-2.432986 -1.69902,1.697544 -3.99498,2.892179 -6.88661,2.892179 -3.48913,0 -5.73844,-1.927874 -5.73844,-5.967484 0,-5.785092 5.50885,-8.263997 12.71615,-10.422203 v -1.83677 c 0,-2.156736 -1.33092,-2.983283 -2.98273,-2.983283 -1.74548,0 -3.21435,1.285005 -3.21435,3.075856 z"
         style="fill:none;stroke:#100f0d;stroke-width:0.64286965;stroke-linecap:butt;stroke-linejoin:miter;stroke-miterlimit:10;stroke-dasharray:none;stroke-opacity:1"
         id="path927"
         inkscape:connector-curvature="0" />
      <path
         d="m -179.80115,-91.656085 h 5.78583 v 33.145074 h -5.78583 v -33.145074"
         style="fill:#100f0d;fill-opacity:1;fill-rule:nonzero;stroke:none;stroke-width:0.18367705"
         id="path929"
         inkscape:connector-curvature="0" />
      <path
         d="m -179.80115,-91.656085 h 5.78583 v 33.145074 h -5.78583 z"
         style="fill:none;stroke:#100f0d;stroke-width:0.64286965;stroke-linecap:butt;stroke-linejoin:miter;stroke-miterlimit:10;stroke-dasharray:none;stroke-opacity:1"
         id="path931"
         inkscape:connector-curvature="0" />
      <path
         d="m -155.51904,-64.111691 h 2.20229 c 3.48986,0 5.50847,-1.653094 5.50847,-6.611088 v -8.723191 c 0,-4.682295 -1.55942,-6.609435 -5.50847,-6.609435 h -2.20229 z m -6.33502,-27.544394 h 8.81466 c 7.25157,0 11.29246,3.12104 11.56614,11.476877 v 10.191137 c -0.27368,8.355285 -4.31457,11.47706 -11.56614,11.47706 h -8.81466 v -33.145074"
         style="fill:#100f0d;fill-opacity:1;fill-rule:nonzero;stroke:none;stroke-width:0.18367705"
         id="path933"
         inkscape:connector-curvature="0" />
      <path
         d="m -155.51904,-64.111691 h 2.20229 c 3.48986,0 5.50847,-1.653094 5.50847,-6.611088 v -8.723191 c 0,-4.682295 -1.55942,-6.609435 -5.50847,-6.609435 h -2.20229 z m -6.33502,-27.544394 h 8.81466 c 7.25157,0 11.29246,3.12104 11.56614,11.476877 v 10.191137 c -0.27368,8.355285 -4.31457,11.47706 -11.56614,11.47706 h -8.81466 z"
         style="fill:none;stroke:#100f0d;stroke-width:0.64286965;stroke-linecap:butt;stroke-linejoin:miter;stroke-miterlimit:10;stroke-dasharray:none;stroke-opacity:1"
         id="path935"
         inkscape:connector-curvature="0" />
      <path
         d="m -126.13255,-70.722779 c -3.44211,1.193901 -6.93014,3.121775 -6.93014,5.739173 0,1.651808 1.00839,2.616112 2.56965,2.616112 1.74309,0 2.98291,-0.918385 4.36049,-2.295228 z m -11.98125,-5.462923 c 0.41327,-5.554761 4.636,-7.758151 9.27201,-7.758151 6.15318,0 8.49323,3.121775 8.49323,7.574474 v 15.838656 c 0,0.688789 0.13959,1.376108 0.32143,2.019712 h -5.78399 c -0.13592,-0.643604 -0.22959,-1.424231 -0.41327,-2.432986 -1.69901,1.697544 -3.99497,2.892179 -6.88605,2.892179 -3.48803,0 -5.73807,-1.927874 -5.73807,-5.967484 0,-5.785092 5.50847,-8.263997 12.71596,-10.422203 v -1.83677 c 0,-2.156736 -1.33166,-2.983283 -2.98292,-2.983283 -1.74493,0 -3.21434,1.285005 -3.21434,3.075856 h -5.78399"
         style="fill:#100f0d;fill-opacity:1;fill-rule:nonzero;stroke:none;stroke-width:0.18367705"
         id="path937"
         inkscape:connector-curvature="0" />
      <path
         d="m -126.13255,-70.722779 c -3.44211,1.193901 -6.93014,3.121775 -6.93014,5.739173 0,1.651808 1.00839,2.616112 2.56965,2.616112 1.74309,0 2.98291,-0.918385 4.36049,-2.295228 z m -11.98125,-5.462923 c 0.41327,-5.554761 4.636,-7.758151 9.27201,-7.758151 6.15318,0 8.49323,3.121775 8.49323,7.574474 v 15.838656 c 0,0.688789 0.13959,1.376108 0.32143,2.019712 h -5.78399 c -0.13592,-0.643604 -0.22959,-1.424231 -0.41327,-2.432986 -1.69901,1.697544 -3.99497,2.892179 -6.88605,2.892179 -3.48803,0 -5.73807,-1.927874 -5.73807,-5.967484 0,-5.785092 5.50847,-8.263997 12.71596,-10.422203 v -1.83677 c 0,-2.156736 -1.33166,-2.983283 -2.98292,-2.983283 -1.74493,0 -3.21434,1.285005 -3.21434,3.075856 z"
         style="fill:none;stroke:#100f0d;stroke-width:0.64286965;stroke-linecap:butt;stroke-linejoin:miter;stroke-miterlimit:10;stroke-dasharray:none;stroke-opacity:1"
         id="path939"
         inkscape:connector-curvature="0" />
      <path
         d="m -117.54014,-77.700303 v -4.683765 h 2.29413 v -6.793112 h 5.78399 v 6.793112 h 3.71946 v 4.683765 h -3.71946 v 12.762616 c 0,1.239269 1.05614,1.835485 2.6174,1.835485 0.41327,0 0.78062,0 1.14798,-0.04519 v 4.865973 c -1.1039,0.182942 -2.20413,0.229596 -3.30619,0.229596 -3.76538,0 -6.24318,-1.377578 -6.24318,-4.957811 v -14.690674 h -2.29413"
         style="fill:#100f0d;fill-opacity:1;fill-rule:nonzero;stroke:none;stroke-width:0.18367705"
         id="path941"
         inkscape:connector-curvature="0" />
      <path
         d="m -117.54014,-77.700303 v -4.683765 h 2.29413 v -6.793112 h 5.78399 v 6.793112 h 3.71946 v 4.683765 h -3.71946 v 12.762616 c 0,1.239269 1.05614,1.835485 2.6174,1.835485 0.41327,0 0.78062,0 1.14798,-0.04519 v 4.865973 c -1.1039,0.182942 -2.20413,0.229596 -3.30619,0.229596 -3.76538,0 -6.24318,-1.377578 -6.24318,-4.957811 v -14.690674 z"
         style="fill:none;stroke:#100f0d;stroke-width:0.64286965;stroke-linecap:butt;stroke-linejoin:miter;stroke-miterlimit:10;stroke-dasharray:none;stroke-opacity:1"
         id="path943"
         inkscape:connector-curvature="0" />
      <path
         d="m -90.407364,-70.722779 c -3.442108,1.193901 -6.930135,3.121775 -6.930135,5.739173 0,1.651808 1.010224,2.616112 2.569642,2.616112 1.744932,0 2.984752,-0.918385 4.360493,-2.295228 z m -11.979416,-5.462923 c 0.41144,-5.554761 4.634171,-7.758151 9.272016,-7.758151 6.151345,0 8.493227,3.121775 8.493227,7.574474 v 15.838656 c 0,0.688789 0.137758,1.376108 0.319598,2.019712 h -5.782154 c -0.137757,-0.643604 -0.229596,-1.424231 -0.41511,-2.432986 -1.697176,1.697544 -3.991302,2.892179 -6.886052,2.892179 -3.488025,0 -5.738075,-1.927874 -5.738075,-5.967484 0,-5.785092 5.508478,-8.263997 12.715966,-10.422203 v -1.83677 c 0,-2.156736 -1.329822,-2.983283 -2.982915,-2.983283 -1.744932,0 -3.214349,1.285005 -3.214349,3.075856 h -5.782152"
         style="fill:#100f0d;fill-opacity:1;fill-rule:nonzero;stroke:none;stroke-width:0.18367705"
         id="path945"
         inkscape:connector-curvature="0" />
      <path
         d="m -90.407364,-70.722779 c -3.442108,1.193901 -6.930135,3.121775 -6.930135,5.739173 0,1.651808 1.010224,2.616112 2.569642,2.616112 1.744932,0 2.984752,-0.918385 4.360493,-2.295228 z m -11.979416,-5.462923 c 0.41144,-5.554761 4.634171,-7.758151 9.272016,-7.758151 6.151345,0 8.493227,3.121775 8.493227,7.574474 v 15.838656 c 0,0.688789 0.137758,1.376108 0.319598,2.019712 h -5.782154 c -0.137757,-0.643604 -0.229596,-1.424231 -0.41511,-2.432986 -1.697176,1.697544 -3.991302,2.892179 -6.886052,2.892179 -3.488025,0 -5.738075,-1.927874 -5.738075,-5.967484 0,-5.785092 5.508478,-8.263997 12.715966,-10.422203 v -1.83677 c 0,-2.156736 -1.329822,-2.983283 -2.982915,-2.983283 -1.744932,0 -3.214349,1.285005 -3.214349,3.075856 z"
         style="fill:none;stroke:#100f0d;stroke-width:0.64286965;stroke-linecap:butt;stroke-linejoin:miter;stroke-miterlimit:10;stroke-dasharray:none;stroke-opacity:1"
         id="path947"
         inkscape:connector-curvature="0" />
      <path
         d="m -278.8951,-18.102115 v -33.145754 h 17.35399 v 5.601415 h -11.01915 v 7.619659 h 8.40175 v 5.601415 h -8.40175 v 8.721832 h 11.47687 v 5.601433 h -17.81171"
         style="fill:#100f0d;fill-opacity:1;fill-rule:nonzero;stroke:none;stroke-width:0.18367705"
         id="path949"
         inkscape:connector-curvature="0" />
      <path
         d="m -278.8951,-18.102115 v -33.145754 h 17.35399 v 5.601415 h -11.01915 v 7.619659 h 8.40175 v 5.601415 h -8.40175 v 8.721832 h 11.47687 v 5.601433 z"
         style="fill:none;stroke:#100f0d;stroke-width:0.64286965;stroke-linecap:butt;stroke-linejoin:miter;stroke-miterlimit:10;stroke-dasharray:none;stroke-opacity:1"
         id="path951"
         inkscape:connector-curvature="0" />
      <path
         d="m -259.195,-37.291352 v -4.683765 h 2.29596 v -6.793846 h 5.78381 v 6.793846 h 3.71799 v 4.683765 h -3.71799 v 12.76269 c 0,1.239103 1.05541,1.834621 2.61666,1.834621 0.41401,0 0.78063,0 1.14725,-0.04449 v 4.866009 c -1.10133,0.18296 -2.20266,0.229596 -3.30472,0.229596 -3.76409,0 -6.243,-1.377578 -6.243,-4.957848 v -14.690582 h -2.29596"
         style="fill:#100f0d;fill-opacity:1;fill-rule:nonzero;stroke:none;stroke-width:0.18367705"
         id="path953"
         inkscape:connector-curvature="0" />
      <path
         d="m -259.195,-37.291352 v -4.683765 h 2.29596 v -6.793846 h 5.78381 v 6.793846 h 3.71799 v 4.683765 h -3.71799 v 12.76269 c 0,1.239103 1.05541,1.834621 2.61666,1.834621 0.41401,0 0.78063,0 1.14725,-0.04449 v 4.866009 c -1.10133,0.18296 -2.20266,0.229596 -3.30472,0.229596 -3.76409,0 -6.243,-1.377578 -6.243,-4.957848 v -14.690582 z"
         style="fill:none;stroke:#100f0d;stroke-width:0.64286965;stroke-linecap:butt;stroke-linejoin:miter;stroke-miterlimit:10;stroke-dasharray:none;stroke-opacity:1"
         id="path955"
         inkscape:connector-curvature="0" />
      <path
         d="m -243.72094,-18.102115 v -33.145754 h 5.78509 v 11.018419 c 1.92806,-1.836771 3.90185,-3.305452 6.28965,-3.305452 3.53431,0 5.37109,1.789382 5.37109,6.426492 v 19.006295 h -5.78436 v -18.36416 c 0,-1.652358 -0.55103,-2.753686 -2.11229,-2.753686 -1.1939,0 -2.52482,1.146512 -3.76409,2.249309 v 18.868537 h -5.78509"
         style="fill:#100f0d;fill-opacity:1;fill-rule:nonzero;stroke:none;stroke-width:0.18367705"
         id="path957"
         inkscape:connector-curvature="0" />
      <path
         d="m -243.72094,-18.102115 v -33.145754 h 5.78509 v 11.018419 c 1.92806,-1.836771 3.90185,-3.305452 6.28965,-3.305452 3.53431,0 5.37109,1.789382 5.37109,6.426492 v 19.006295 h -5.78436 v -18.36416 c 0,-1.652358 -0.55103,-2.753686 -2.11229,-2.753686 -1.1939,0 -2.52482,1.146512 -3.76409,2.249309 v 18.868537 z"
         style="fill:none;stroke:#100f0d;stroke-width:0.64286965;stroke-linecap:butt;stroke-linejoin:miter;stroke-miterlimit:10;stroke-dasharray:none;stroke-opacity:1"
         id="path959"
         inkscape:connector-curvature="0" />
      <path
         d="m -216.53803,-43.07571 v 24.973595 h -5.78454 V -43.07571 Z m -5.78454,-4.315676 v -5.234061 h 5.78454 v 5.234061 h -5.78454"
         style="fill:#100f0d;fill-opacity:1;fill-rule:nonzero;stroke:none;stroke-width:0.18367705"
         id="path961"
         inkscape:connector-curvature="0" />
      <path
         d="m -216.53803,-43.07571 v 24.973595 h -5.78454 V -43.07571 Z m -5.78454,-4.315676 v -5.234061 h 5.78454 v 5.234061 z"
         style="fill:none;stroke:#100f0d;stroke-width:0.64286965;stroke-linecap:butt;stroke-linejoin:miter;stroke-miterlimit:10;stroke-dasharray:none;stroke-opacity:1"
         id="path963"
         inkscape:connector-curvature="0" />
      <path
         d="m -200.46702,-34.446562 v -1.101327 c 0,-1.928609 -1.37758,-2.938098 -3.39729,-2.938098 -2.0199,0 -3.39747,1.009489 -3.39747,2.938098 v 9.915732 c 0,1.928609 1.37757,2.938116 3.39747,2.938116 2.01971,0 3.39729,-1.009507 3.39729,-2.938116 v -1.560539 h 5.78362 v 0.09184 c 0,6.611657 -3.39582,9.457935 -9.18091,9.457935 -5.78454,0 -9.18183,-2.846278 -9.18183,-9.457935 v -6.978351 c 0,-6.609435 3.39729,-9.455694 9.18183,-9.455694 5.6466,0 9.04462,2.752951 9.13646,9.08834 h -5.73917"
         style="fill:#100f0d;fill-opacity:1;fill-rule:nonzero;stroke:none;stroke-width:0.18367705"
         id="path965"
         inkscape:connector-curvature="0" />
      <path
         d="m -200.46702,-34.446562 v -1.101327 c 0,-1.928609 -1.37758,-2.938098 -3.39729,-2.938098 -2.0199,0 -3.39747,1.009489 -3.39747,2.938098 v 9.915732 c 0,1.928609 1.37757,2.938116 3.39747,2.938116 2.01971,0 3.39729,-1.009507 3.39729,-2.938116 v -1.560539 h 5.78362 v 0.09184 c 0,6.611657 -3.39582,9.457935 -9.18091,9.457935 -5.78454,0 -9.18183,-2.846278 -9.18183,-9.457935 v -6.978351 c 0,-6.609435 3.39729,-9.455694 9.18183,-9.455694 5.6466,0 9.04462,2.752951 9.13646,9.08834 z"
         style="fill:none;stroke:#100f0d;stroke-width:0.64286965;stroke-linecap:butt;stroke-linejoin:miter;stroke-miterlimit:10;stroke-dasharray:none;stroke-opacity:1"
         id="path967"
         inkscape:connector-curvature="0" />
      <path
         d="m -179.06828,-35.456786 c -0.78062,-2.293759 -2.25004,-3.39729 -3.99314,-3.39729 -1.33165,0 -2.34371,0.965039 -2.34371,2.249309 0,3.856483 11.29613,3.949791 11.29613,11.387316 0,4.957847 -3.4917,7.574529 -8.31138,7.574529 -3.48803,0 -6.60925,-0.873182 -9.41106,-7.115337 l 5.18832,-1.424213 c 0.50511,2.342599 1.92677,3.856502 4.22274,3.856502 1.74677,0 2.80107,-0.827263 2.80107,-2.202692 0,-4.775677 -11.29375,-3.627696 -11.29375,-12.029451 0,-4.728215 3.80983,-6.976789 7.89573,-6.976789 4.31641,0 7.30116,2.478171 8.72282,6.24355 l -4.77377,1.834566"
         style="fill:#100f0d;fill-opacity:1;fill-rule:nonzero;stroke:none;stroke-width:0.18367705"
         id="path969"
         inkscape:connector-curvature="0" />
      <path
         d="m -179.06828,-35.456786 c -0.78062,-2.293759 -2.25004,-3.39729 -3.99314,-3.39729 -1.33165,0 -2.34371,0.965039 -2.34371,2.249309 0,3.856483 11.29613,3.949791 11.29613,11.387316 0,4.957847 -3.4917,7.574529 -8.31138,7.574529 -3.48803,0 -6.60925,-0.873182 -9.41106,-7.115337 l 5.18832,-1.424213 c 0.50511,2.342599 1.92677,3.856502 4.22274,3.856502 1.74677,0 2.80107,-0.827263 2.80107,-2.202692 0,-4.775677 -11.29375,-3.627696 -11.29375,-12.029451 0,-4.728215 3.80983,-6.976789 7.89573,-6.976789 4.31641,0 7.30116,2.478171 8.72282,6.24355 z"
         style="fill:none;stroke:#100f0d;stroke-width:0.64286965;stroke-linecap:butt;stroke-linejoin:miter;stroke-miterlimit:10;stroke-dasharray:none;stroke-opacity:1"
         id="path971"
         inkscape:connector-curvature="0" />
      <path
         d="m -157.08213,-36.649217 h 3.39802 c 3.12068,0 4.68193,-1.56052 4.68193,-4.683765 0,-3.120305 -1.56125,-4.680826 -4.68193,-4.680826 h -3.39802 z m -6.33502,18.547102 v -33.145754 h 9.13609 c 7.80444,0 11.6139,3.673541 11.6139,9.914887 0,6.244285 -3.80946,9.917826 -11.6139,9.917826 h -2.80107 v 13.313041 h -6.33502"
         style="fill:#100f0d;fill-opacity:1;fill-rule:nonzero;stroke:none;stroke-width:0.18367705"
         id="path973"
         inkscape:connector-curvature="0" />
      <path
         d="m -157.08213,-36.649217 h 3.39802 c 3.12068,0 4.68193,-1.56052 4.68193,-4.683765 0,-3.120305 -1.56125,-4.680826 -4.68193,-4.680826 h -3.39802 z m -6.33502,18.547102 v -33.145754 h 9.13609 c 7.80444,0 11.6139,3.673541 11.6139,9.914887 0,6.244285 -3.80946,9.917826 -11.6139,9.917826 h -2.80107 v 13.313041 z"
         style="fill:none;stroke:#100f0d;stroke-width:0.64286965;stroke-linecap:butt;stroke-linejoin:miter;stroke-miterlimit:10;stroke-dasharray:none;stroke-opacity:1"
         id="path975"
         inkscape:connector-curvature="0" />
      <path
         d="M -139.49322,-18.102115 V -43.07571 h 5.64623 v 3.305453 h 0.0937 c 1.32982,-2.48111 3.07292,-3.764645 5.96767,-3.764645 v 6.24355 c -0.96615,-0.27625 -2.06637,-0.644339 -3.07659,-0.644339 -1.88269,0 -2.847,1.424232 -2.847,2.755156 v 17.07842 h -5.78399"
         style="fill:#100f0d;fill-opacity:1;fill-rule:nonzero;stroke:none;stroke-width:0.18367705"
         id="path977"
         inkscape:connector-curvature="0" />
      <path
         d="M -139.49322,-18.102115 V -43.07571 h 5.64623 v 3.305453 h 0.0937 c 1.32982,-2.48111 3.07292,-3.764645 5.96767,-3.764645 v 6.24355 c -0.96615,-0.27625 -2.06637,-0.644339 -3.07659,-0.644339 -1.88269,0 -2.847,1.424232 -2.847,2.755156 v 17.07842 z"
         style="fill:none;stroke:#100f0d;stroke-width:0.64286965;stroke-linecap:butt;stroke-linejoin:miter;stroke-miterlimit:10;stroke-dasharray:none;stroke-opacity:1"
         id="path979"
         inkscape:connector-curvature="0" />
      <path
         d="m -119.79386,-25.632157 c 0,1.928609 1.37575,2.938116 3.39619,2.938116 2.02045,0 3.39619,-1.009507 3.39619,-2.938116 v -9.915732 c 0,-1.928609 -1.37574,-2.938098 -3.39619,-2.938098 -2.02044,0 -3.39619,1.009489 -3.39619,2.938098 z m -5.78582,-8.447051 c 0,-6.609435 3.39802,-9.455694 9.18201,-9.455694 5.78399,0 9.18202,2.846259 9.18202,9.455694 v 6.978351 c 0,6.611657 -3.39803,9.457935 -9.18202,9.457935 -5.78399,0 -9.18201,-2.846278 -9.18201,-9.457935 v -6.978351"
         style="fill:#100f0d;fill-opacity:1;fill-rule:nonzero;stroke:none;stroke-width:0.18367705"
         id="path981"
         inkscape:connector-curvature="0" />
      <path
         d="m -119.79386,-25.632157 c 0,1.928609 1.37575,2.938116 3.39619,2.938116 2.02045,0 3.39619,-1.009507 3.39619,-2.938116 v -9.915732 c 0,-1.928609 -1.37574,-2.938098 -3.39619,-2.938098 -2.02044,0 -3.39619,1.009489 -3.39619,2.938098 z m -5.78582,-8.447051 c 0,-6.609435 3.39802,-9.455694 9.18201,-9.455694 5.78399,0 9.18202,2.846259 9.18202,9.455694 v 6.978351 c 0,6.611657 -3.39803,9.457935 -9.18202,9.457935 -5.78399,0 -9.18201,-2.846278 -9.18201,-9.457935 z"
         style="fill:none;stroke:#100f0d;stroke-width:0.64286965;stroke-linecap:butt;stroke-linejoin:miter;stroke-miterlimit:10;stroke-dasharray:none;stroke-opacity:1"
         id="path983"
         inkscape:connector-curvature="0" />
      <path
         d="m -103.35476,-47.391386 v -5.234061 h 5.785828 v 5.234061 z m 5.785828,4.315676 v 26.993327 c 0,4.774887 -3.214348,6.7946178 -7.071568,6.7946178 -0.73287,0 -1.46758,-0.046637 -2.11045,-0.138476 v -5.0956038 c 2.47781,0 3.39619,-0.733275 3.39619,-2.295963 V -43.07571 h 5.785828"
         style="fill:#100f0d;fill-opacity:1;fill-rule:nonzero;stroke:none;stroke-width:0.18367705"
         id="path985"
         inkscape:connector-curvature="0" />
      <path
         d="m -103.35476,-47.391386 v -5.234061 h 5.785828 v 5.234061 z m 5.785828,4.315676 v 26.993327 c 0,4.774887 -3.214348,6.7946178 -7.071568,6.7946178 -0.73287,0 -1.46758,-0.046637 -2.11045,-0.138476 v -5.0956038 c 2.47781,0 3.39619,-0.733275 3.39619,-2.295963 V -43.07571 Z"
         style="fill:none;stroke:#100f0d;stroke-width:0.64286965;stroke-linecap:butt;stroke-linejoin:miter;stroke-miterlimit:10;stroke-dasharray:none;stroke-opacity:1"
         id="path987"
         inkscape:connector-curvature="0" />
      <path
         d="m -81.361269,-33.894061 v -1.377578 c 0,-2.204859 -1.054307,-3.582437 -3.398026,-3.582437 -2.340045,0 -3.396189,1.377578 -3.396189,3.582437 v 1.377578 z m -6.794215,4.68156 v 3.306261 c 0,2.478924 1.471254,3.58027 3.396189,3.58027 2.435558,0 3.398026,-1.560539 3.398026,-3.489148 h 5.78399 c -0.273679,5.142957 -3.35027,8.172196 -9.182016,8.172196 -5.508475,0 -9.180179,-3.397309 -9.180179,-8.860985 v -8.172251 c 0,-5.462188 3.671704,-8.858744 9.180179,-8.858744 5.372554,0 9.182016,3.396556 9.182016,8.492859 v 5.829542 h -12.578205"
         style="fill:#100f0d;fill-opacity:1;fill-rule:nonzero;stroke:none;stroke-width:0.18367705"
         id="path989"
         inkscape:connector-curvature="0" />
      <path
         d="m -81.361269,-33.894061 v -1.377578 c 0,-2.204859 -1.054307,-3.582437 -3.398026,-3.582437 -2.340045,0 -3.396189,1.377578 -3.396189,3.582437 v 1.377578 z m -6.794215,4.68156 v 3.306261 c 0,2.478924 1.471254,3.58027 3.396189,3.58027 2.435558,0 3.398026,-1.560539 3.398026,-3.489148 h 5.78399 c -0.273679,5.142957 -3.35027,8.172196 -9.182016,8.172196 -5.508475,0 -9.180179,-3.397309 -9.180179,-8.860985 v -8.172251 c 0,-5.462188 3.671704,-8.858744 9.180179,-8.858744 5.372554,0 9.182016,3.396556 9.182016,8.492859 v 5.829542 z"
         style="fill:none;stroke:#100f0d;stroke-width:0.64286965;stroke-linecap:butt;stroke-linejoin:miter;stroke-miterlimit:10;stroke-dasharray:none;stroke-opacity:1"
         id="path991"
         inkscape:connector-curvature="0" />
      <path
         d="m -59.54962,-34.446562 v -1.101327 c 0,-1.928609 -1.375741,-2.938098 -3.398025,-2.938098 -2.018611,0 -3.396189,1.009489 -3.396189,2.938098 v 9.915732 c 0,1.928609 1.377578,2.938116 3.396189,2.938116 2.022284,0 3.398025,-1.009507 3.398025,-2.938116 v -1.560539 h 5.783991 v 0.09184 c 0,6.611657 -3.396189,9.457935 -9.182016,9.457935 -5.782154,0 -9.180179,-2.846278 -9.180179,-9.457935 v -6.978351 c 0,-6.609435 3.398025,-9.455694 9.180179,-9.455694 5.648069,0 9.044258,2.752951 9.137933,9.08834 h -5.739908"
         style="fill:#100f0d;fill-opacity:1;fill-rule:nonzero;stroke:none;stroke-width:0.18367705"
         id="path993"
         inkscape:connector-curvature="0" />
      <path
         d="m -59.54962,-34.446562 v -1.101327 c 0,-1.928609 -1.375741,-2.938098 -3.398025,-2.938098 -2.018611,0 -3.396189,1.009489 -3.396189,2.938098 v 9.915732 c 0,1.928609 1.377578,2.938116 3.396189,2.938116 2.022284,0 3.398025,-1.009507 3.398025,-2.938116 v -1.560539 h 5.783991 v 0.09184 c 0,6.611657 -3.396189,9.457935 -9.182016,9.457935 -5.782154,0 -9.180179,-2.846278 -9.180179,-9.457935 v -6.978351 c 0,-6.609435 3.398025,-9.455694 9.180179,-9.455694 5.648069,0 9.044258,2.752951 9.137933,9.08834 z"
         style="fill:none;stroke:#100f0d;stroke-width:0.64286965;stroke-linecap:butt;stroke-linejoin:miter;stroke-miterlimit:10;stroke-dasharray:none;stroke-opacity:1"
         id="path995"
         inkscape:connector-curvature="0" />
      <path
         d="m -51.4164,-37.291352 v -4.683765 h 2.294126 v -6.793846 h 5.783991 v 6.793846 h 3.71946 v 4.683765 h -3.71946 v 12.76269 c 0,1.239103 1.056143,1.834621 2.617398,1.834621 0.413273,0 0.780627,0 1.147981,-0.04449 v 4.866009 c -1.103899,0.18296 -2.204124,0.229596 -3.306187,0.229596 -3.765379,0 -6.243183,-1.377578 -6.243183,-4.957848 V -37.291352 H -51.4164"
         style="fill:#100f0d;fill-opacity:1;fill-rule:nonzero;stroke:none;stroke-width:0.18367705"
         id="path997"
         inkscape:connector-curvature="0" />
      <path
         d="m -51.4164,-37.291352 v -4.683765 h 2.294126 v -6.793846 h 5.783991 v 6.793846 h 3.71946 v 4.683765 h -3.71946 v 12.76269 c 0,1.239103 1.056143,1.834621 2.617398,1.834621 0.413273,0 0.780627,0 1.147981,-0.04449 v 4.866009 c -1.103899,0.18296 -2.204124,0.229596 -3.306187,0.229596 -3.765379,0 -6.243183,-1.377578 -6.243183,-4.957848 v -14.690582 z"
         style="fill:none;stroke:#100f0d;stroke-width:0.64286965;stroke-linecap:butt;stroke-linejoin:miter;stroke-miterlimit:10;stroke-dasharray:none;stroke-opacity:1"
         id="path999"
         inkscape:connector-curvature="0" />
      <path
         d="m -277.66593,-102.63667 h 4.05228 c 3.24172,0 5.47872,-1.79654 5.49525,-6.12232 -0.0165,-4.32633 -2.25353,-6.12159 -5.49525,-6.12159 h -4.05228 z m 2.33821,-10.27875 h 1.56199 c 2.68058,0 3.30839,1.96737 3.30839,4.15643 0,2.18906 -0.62781,4.15643 -3.30839,4.15643 h -1.56199 z m 13.38344,0.39032 h 0.0344 l 1.37409,5.31157 h -2.8492 z m -5.00171,9.88843 h 2.32388 l 0.72755,-2.64678 h 3.86658 l 0.67942,2.64678 h 2.32187 l -3.47554,-12.24391 h -2.91734 z m 9.95585,-12.24391 v 1.96516 h 3.20645 v 10.27875 h 2.33766 v -10.27875 h 3.20571 v -1.96516 z m 13.76365,2.35548 h 0.0336 l 1.37335,5.31157 h -2.8492 z m -5.00299,9.88843 h 2.32315 l 0.72901,-2.64678 h 3.86714 l 0.67813,2.64678 h 2.32315 l -3.47627,-12.24391 h -2.9179 z m 18.63881,0 v -5.39331 h 4.08682 v -1.96516 h -4.08682 v -2.92028 h 5.4609 v -1.96516 h -7.79911 v 12.24391 z m 14.56357,-6.12232 c 0,2.8672 -0.88312,4.32725 -2.79961,4.32725 -1.93503,0 -2.83413,-1.46005 -2.7996,-4.32725 0,-2.86775 0.8811,-4.32633 2.7996,-4.32633 1.91649,0 2.79961,1.45858 2.79961,4.32633 m 2.33766,0 c 0,-4.00416 -1.79673,-6.29167 -5.13727,-6.29167 -3.34347,0 -5.13799,2.28751 -5.13799,6.29167 0,4.00287 1.79452,6.29167 5.13799,6.29167 3.34054,0 5.13727,-2.2888 5.13727,-6.29167 m 4.69295,6.12232 v -4.98646 h 2.01989 l 2.30735,4.98646 h 2.59297 l -2.69417,-5.46145 c 1.49164,-0.42264 2.25298,-1.64446 2.23572,-3.15337 -0.0165,-2.01971 -1.13439,-3.62909 -3.916,-3.62909 h -4.88324 v 12.24391 z m 0,-10.34689 h 2.13818 c 1.2907,0 1.98684,0.57619 1.98684,1.73207 0,1.15294 -0.5604,1.73134 -2.39368,1.73134 h -1.73134 z m 13.97892,10.34689 h 4.05173 c 3.2419,0 5.47725,-1.79654 5.49378,-6.12232 -0.0165,-4.32633 -2.25188,-6.12159 -5.49378,-6.12159 h -4.05173 z m 2.33895,-10.27875 h 1.56052 c 2.68131,0 3.30912,1.96737 3.30912,4.15643 0,2.18906 -0.62781,4.15643 -3.30912,4.15643 h -1.56052 z m 17.83412,10.27875 v -1.96589 h -5.95297 v -3.42742 h 4.18783 v -1.96516 h -4.18783 v -2.92028 h 5.76746 v -1.96516 h -8.10567 v 12.24391 z m 4.2411,0 v -9.63441 h 0.0349 l 2.71291,9.63441 h 1.78167 l 2.74964,-9.63441 h 0.0331 v 9.63441 h 2.0333 v -12.24391 h -3.32455 l -2.37495,8.54613 h -0.0312 l -2.36025,-8.54613 h -3.28782 v 12.24391 z m 19.66263,-6.12232 c 0,2.8672 -0.87981,4.32725 -2.79924,4.32725 -1.93412,0 -2.83413,-1.46005 -2.80107,-4.32725 0,-2.86775 0.88532,-4.32633 2.80107,-4.32633 1.91943,0 2.79924,1.45858 2.79924,4.32633 m 2.34005,0 c 0,-4.00416 -1.79637,-6.29167 -5.13929,-6.29167 -3.34292,0 -5.13744,2.28751 -5.13744,6.29167 0,4.00287 1.79452,6.29167 5.13744,6.29167 3.34292,0 5.13929,-2.2888 5.13929,-6.29167 m 10.9049,-3.07145 c -0.57674,-2.16904 -1.93412,-3.22022 -4.27416,-3.22022 -3.11884,0 -4.91704,2.28751 -4.91704,6.29167 0,4.00287 1.7982,6.29167 4.91704,6.29167 2.23902,0 3.83334,-1.08406 4.56254,-3.20424 l -2.17107,-0.57693 c -0.6943,1.44223 -1.34084,1.81675 -2.39147,1.81675 -1.7633,0 -2.61189,-1.46005 -2.57699,-4.32725 0,-2.86775 0.94777,-4.32633 2.50903,-4.32633 1.15349,0 1.88269,0.72957 2.22249,1.76422 z m 4.67275,9.19377 v -4.98646 h 2.02044 l 2.30699,4.98646 h 2.59352 l -2.69454,-5.46145 c 1.48962,-0.42264 2.25188,-1.64446 2.23718,-3.15337 -0.0184,-2.01971 -1.13696,-3.62909 -3.91783,-3.62909 h -4.88214 v 12.24391 z m 0,-10.34689 h 2.138 c 1.28941,0 1.98555,0.57619 1.98555,1.73207 0,1.15294 -0.56022,1.73134 -2.39332,1.73134 h -1.73023 z m 13.59577,0.45846 h 0.0349 l 1.3739,5.31157 h -2.85066 z m -5.00152,9.88843 h 2.32167 l 0.7292,-2.64678 h 3.8664 l 0.67777,2.64678 h 2.32352 l -3.47517,-12.24391 h -2.91679 z m 20.06304,-9.19377 c -0.57858,-2.16904 -1.93412,-3.22022 -4.276,-3.22022 -3.12067,0 -4.9152,2.28751 -4.9152,6.29167 0,4.00287 1.79453,6.29167 4.9152,6.29167 2.23902,0 3.83334,-1.08406 4.56437,-3.20424 l -2.1729,-0.57693 c -0.6943,1.44223 -1.339,1.81675 -2.39147,1.81675 -1.7633,0 -2.61005,-1.46005 -2.57699,-4.32725 0,-2.86775 0.94961,-4.32633 2.50903,-4.32633 1.15349,0 1.88452,0.72957 2.22249,1.76422 z m 3.477007,-3.05014 h -2.441067 l 3.374146,7.36068 v 4.88323 h 2.338209 v -4.88323 l 3.375984,-7.36068 h -2.441068 l -2.101265,4.85018 -2.104939,-4.85018"
         style="fill:#100f0d;fill-opacity:1;fill-rule:nonzero;stroke:none;stroke-width:0.18367705"
         id="path1001"
         inkscape:connector-curvature="0" />
      <path
         d="m -277.66593,-102.63667 h 4.05228 c 3.24172,0 5.47872,-1.79654 5.49525,-6.12232 -0.0165,-4.32633 -2.25353,-6.12159 -5.49525,-6.12159 h -4.05228 z m 2.33821,-10.27875 h 1.56199 c 2.68058,0 3.30839,1.96737 3.30839,4.15643 0,2.18906 -0.62781,4.15643 -3.30839,4.15643 h -1.56199 z m 13.38344,0.39032 h 0.0344 l 1.37409,5.31157 h -2.8492 z m -5.00171,9.88843 h 2.32388 l 0.72755,-2.64678 h 3.86658 l 0.67942,2.64678 h 2.32187 l -3.47554,-12.24391 h -2.91734 z m 9.95585,-12.24391 v 1.96516 h 3.20645 v 10.27875 h 2.33766 v -10.27875 h 3.20571 v -1.96516 z m 13.76365,2.35548 h 0.0336 l 1.37335,5.31157 h -2.8492 z m -5.00299,9.88843 h 2.32315 l 0.72901,-2.64678 h 3.86714 l 0.67813,2.64678 h 2.32315 l -3.47627,-12.24391 h -2.9179 z m 18.63881,0 v -5.39331 h 4.08682 v -1.96516 h -4.08682 v -2.92028 h 5.4609 v -1.96516 h -7.79911 v 12.24391 z m 14.56357,-6.12232 c 0,2.8672 -0.88312,4.32725 -2.79961,4.32725 -1.93503,0 -2.83413,-1.46005 -2.7996,-4.32725 0,-2.86775 0.8811,-4.32633 2.7996,-4.32633 1.91649,0 2.79961,1.45858 2.79961,4.32633 m 2.33766,0 c 0,-4.00416 -1.79673,-6.29167 -5.13727,-6.29167 -3.34347,0 -5.13799,2.28751 -5.13799,6.29167 0,4.00287 1.79452,6.29167 5.13799,6.29167 3.34054,0 5.13727,-2.2888 5.13727,-6.29167 m 4.69295,6.12232 v -4.98646 h 2.01989 l 2.30735,4.98646 h 2.59297 l -2.69417,-5.46145 c 1.49164,-0.42264 2.25298,-1.64446 2.23572,-3.15337 -0.0165,-2.01971 -1.13439,-3.62909 -3.916,-3.62909 h -4.88324 v 12.24391 z m 0,-10.34689 h 2.13818 c 1.2907,0 1.98684,0.57619 1.98684,1.73207 0,1.15294 -0.5604,1.73134 -2.39368,1.73134 h -1.73134 z m 13.97892,10.34689 h 4.05173 c 3.2419,0 5.47725,-1.79654 5.49378,-6.12232 -0.0165,-4.32633 -2.25188,-6.12159 -5.49378,-6.12159 h -4.05173 z m 2.33895,-10.27875 h 1.56052 c 2.68131,0 3.30912,1.96737 3.30912,4.15643 0,2.18906 -0.62781,4.15643 -3.30912,4.15643 h -1.56052 z m 17.83412,10.27875 v -1.96589 h -5.95297 v -3.42742 h 4.18783 v -1.96516 h -4.18783 v -2.92028 h 5.76746 v -1.96516 h -8.10567 v 12.24391 z m 4.2411,0 v -9.63441 h 0.0349 l 2.71291,9.63441 h 1.78167 l 2.74964,-9.63441 h 0.0331 v 9.63441 h 2.0333 v -12.24391 h -3.32455 l -2.37495,8.54613 h -0.0312 l -2.36025,-8.54613 h -3.28782 v 12.24391 z m 19.66263,-6.12232 c 0,2.8672 -0.87981,4.32725 -2.79924,4.32725 -1.93412,0 -2.83413,-1.46005 -2.80107,-4.32725 0,-2.86775 0.88532,-4.32633 2.80107,-4.32633 1.91943,0 2.79924,1.45858 2.79924,4.32633 m 2.34005,0 c 0,-4.00416 -1.79637,-6.29167 -5.13929,-6.29167 -3.34292,0 -5.13744,2.28751 -5.13744,6.29167 0,4.00287 1.79452,6.29167 5.13744,6.29167 3.34292,0 5.13929,-2.2888 5.13929,-6.29167 m 10.9049,-3.07145 c -0.57674,-2.16904 -1.93412,-3.22022 -4.27416,-3.22022 -3.11884,0 -4.91704,2.28751 -4.91704,6.29167 0,4.00287 1.7982,6.29167 4.91704,6.29167 2.23902,0 3.83334,-1.08406 4.56254,-3.20424 l -2.17107,-0.57693 c -0.6943,1.44223 -1.34084,1.81675 -2.39147,1.81675 -1.7633,0 -2.61189,-1.46005 -2.57699,-4.32725 0,-2.86775 0.94777,-4.32633 2.50903,-4.32633 1.15349,0 1.88269,0.72957 2.22249,1.76422 z m 4.67275,9.19377 v -4.98646 h 2.02044 l 2.30699,4.98646 h 2.59352 l -2.69454,-5.46145 c 1.48962,-0.42264 2.25188,-1.64446 2.23718,-3.15337 -0.0184,-2.01971 -1.13696,-3.62909 -3.91783,-3.62909 h -4.88214 v 12.24391 z m 0,-10.34689 h 2.138 c 1.28941,0 1.98555,0.57619 1.98555,1.73207 0,1.15294 -0.56022,1.73134 -2.39332,1.73134 h -1.73023 z m 13.59577,0.45846 h 0.0349 l 1.3739,5.31157 h -2.85066 z m -5.00152,9.88843 h 2.32167 l 0.7292,-2.64678 h 3.8664 l 0.67777,2.64678 h 2.32352 l -3.47517,-12.24391 h -2.91679 z m 20.06304,-9.19377 c -0.57858,-2.16904 -1.93412,-3.22022 -4.276,-3.22022 -3.12067,0 -4.9152,2.28751 -4.9152,6.29167 0,4.00287 1.79453,6.29167 4.9152,6.29167 2.23902,0 3.83334,-1.08406 4.56437,-3.20424 l -2.1729,-0.57693 c -0.6943,1.44223 -1.339,1.81675 -2.39147,1.81675 -1.7633,0 -2.61005,-1.46005 -2.57699,-4.32725 0,-2.86775 0.94961,-4.32633 2.50903,-4.32633 1.15349,0 1.88452,0.72957 2.22249,1.76422 z m 3.477007,-3.05014 h -2.441067 l 3.374146,7.36068 v 4.88323 h 2.338209 v -4.88323 l 3.375984,-7.36068 h -2.441068 l -2.101265,4.85018 z"
         style="fill:none;stroke:#100f0d;stroke-width:0.27551559;stroke-linecap:butt;stroke-linejoin:miter;stroke-miterlimit:10;stroke-dasharray:none;stroke-opacity:1"
         id="path1003"
         inkscape:connector-curvature="0" />
      <path
         d="m -273.61365,-114.88058 h -4.05228 v 12.24391 h 4.05228 c 3.24172,0 5.47872,-1.79654 5.49525,-6.12232 m -7.20932,-4.15643 h 1.56199 c 2.68058,0 3.30839,1.96737 3.30839,4.15643 0,2.18906 -0.62781,4.15643 -3.30839,4.15643 h -1.56199 z m 13.38344,0.39032 h 0.0344 l 1.37409,5.31157 h -2.8492 z m -5.00171,9.88843 h 2.32388 l 0.72755,-2.64678 h 3.86658 l 0.67942,2.64678 h 2.32187 l -3.47554,-12.24391 h -2.91734 z m 9.95585,-12.24391 v 1.96516 h 3.20645 v 10.27875 h 2.33766 v -10.27875 h 3.20571 v -1.96516 z m 13.76365,2.35548 h 0.0336 l 1.37335,5.31157 h -2.8492 z m -5.00299,9.88843 h 2.32315 l 0.72901,-2.64678 h 3.86714 l 0.67813,2.64678 h 2.32315 l -3.47627,-12.24391 h -2.9179 z m 18.63881,0 v -5.39331 h 4.08682 v -1.96516 h -4.08682 v -2.92028 h 5.4609 v -1.96516 h -7.79911 v 12.24391 z m 14.56357,-6.12232 c 0,2.8672 -0.88312,4.32725 -2.79961,4.32725 -1.93503,0 -2.83413,-1.46005 -2.7996,-4.32725 0,-2.86775 0.8811,-4.32633 2.7996,-4.32633 1.91649,0 2.79961,1.45858 2.79961,4.32633 z m 2.33766,0 c 0,-4.00416 -1.79673,-6.29167 -5.13727,-6.29167 -3.34347,0 -5.13799,2.28751 -5.13799,6.29167 0,4.00287 1.79452,6.29167 5.13799,6.29167 3.34054,0 5.13727,-2.2888 5.13727,-6.29167 z m 4.69295,6.12232 v -4.98646 h 2.01989 l 2.30735,4.98646 h 2.59297 l -2.69417,-5.46145 c 1.49164,-0.42264 2.25298,-1.64446 2.23572,-3.15337 -0.0165,-2.01971 -1.13439,-3.62909 -3.916,-3.62909 h -4.88324 v 12.24391 z m 0,-10.34689 h 2.13818 c 1.2907,0 1.98684,0.57619 1.98684,1.73207 0,1.15294 -0.5604,1.73134 -2.39368,1.73134 h -1.73134 z m 13.97892,10.34689 h 4.05173 c 3.2419,0 5.47725,-1.79654 5.49378,-6.12232 -0.0165,-4.32633 -2.25188,-6.12159 -5.49378,-6.12159 h -4.05173 z m 2.33895,-10.27875 h 1.56052 c 2.68131,0 3.30912,1.96737 3.30912,4.15643 0,2.18906 -0.62781,4.15643 -3.30912,4.15643 h -1.56052 z m 17.83412,10.27875 v -1.96589 h -5.95297 v -3.42742 h 4.18783 v -1.96516 h -4.18783 v -2.92028 h 5.76746 v -1.96516 h -8.10567 v 12.24391 z m 4.2411,0 v -9.63441 h 0.0349 l 2.71291,9.63441 h 1.78167 l 2.74964,-9.63441 h 0.0331 v 9.63441 h 2.0333 v -12.24391 h -3.32455 l -2.37495,8.54613 h -0.0312 l -2.36025,-8.54613 h -3.28782 v 12.24391 z m 19.66263,-6.12232 c 0,2.8672 -0.87981,4.32725 -2.79924,4.32725 -1.93412,0 -2.83413,-1.46005 -2.80107,-4.32725 0,-2.86775 0.88532,-4.32633 2.80107,-4.32633 1.91943,0 2.79924,1.45858 2.79924,4.32633 z m 2.34005,0 c 0,-4.00416 -1.79637,-6.29167 -5.13929,-6.29167 -3.34292,0 -5.13744,2.28751 -5.13744,6.29167 0,4.00287 1.79452,6.29167 5.13744,6.29167 3.34292,0 5.13929,-2.2888 5.13929,-6.29167 z m 10.9049,-3.07145 c -0.57674,-2.16904 -1.93412,-3.22022 -4.27416,-3.22022 -3.11884,0 -4.91704,2.28751 -4.91704,6.29167 0,4.00287 1.7982,6.29167 4.91704,6.29167 2.23902,0 3.83334,-1.08406 4.56254,-3.20424 l -2.17107,-0.57693 c -0.6943,1.44223 -1.34084,1.81675 -2.39147,1.81675 -1.7633,0 -2.61189,-1.46005 -2.57699,-4.32725 0,-2.86775 0.94777,-4.32633 2.50903,-4.32633 1.15349,0 1.88269,0.72957 2.22249,1.76422 z m 4.67275,9.19377 v -4.98646 h 2.02044 l 2.30699,4.98646 h 2.59352 l -2.69454,-5.46145 c 1.48962,-0.42264 2.25188,-1.64446 2.23718,-3.15337 -0.0184,-2.01971 -1.13696,-3.62909 -3.91783,-3.62909 h -4.88214 v 12.24391 z m 0,-10.34689 h 2.138 c 1.28941,0 1.98555,0.57619 1.98555,1.73207 0,1.15294 -0.56022,1.73134 -2.39332,1.73134 h -1.73023 z m 13.59577,0.45846 h 0.0349 l 1.3739,5.31157 h -2.85066 z m -5.00152,9.88843 h 2.32167 l 0.7292,-2.64678 h 3.8664 l 0.67777,2.64678 h 2.32352 l -3.47517,-12.24391 h -2.91679 z m 20.06304,-9.19377 c -0.57858,-2.16904 -1.93412,-3.22022 -4.276,-3.22022 -3.12067,0 -4.9152,2.28751 -4.9152,6.29167 0,4.00287 1.79453,6.29167 4.9152,6.29167 2.23902,0 3.83334,-1.08406 4.56437,-3.20424 l -2.1729,-0.57693 c -0.6943,1.44223 -1.339,1.81675 -2.39147,1.81675 -1.7633,0 -2.61005,-1.46005 -2.57699,-4.32725 0,-2.86775 0.94961,-4.32633 2.50903,-4.32633 1.15349,0 1.88452,0.72957 2.22249,1.76422 z m 3.477007,-3.05014 h -2.441067 l 3.374146,7.36068 v 4.88323 h 2.338209 v -4.88323 l 3.375984,-7.36068 h -2.441068 l -2.101265,4.85018 -2.104939,-4.85018"
         style="fill:#100f0d;fill-opacity:1;fill-rule:nonzero;stroke:none;stroke-width:0.18367705"
         id="path1005"
         inkscape:connector-curvature="0" />
      <path
         d="m -273.61365,-114.88058 h -4.05228 v 12.24391 h 4.05228 c 3.24172,0 5.47872,-1.79654 5.49525,-6.12232 m -7.20932,-4.15643 h 1.56199 c 2.68058,0 3.30839,1.96737 3.30839,4.15643 0,2.18906 -0.62781,4.15643 -3.30839,4.15643 h -1.56199 z m 13.38344,0.39032 h 0.0344 l 1.37409,5.31157 h -2.8492 z m -5.00171,9.88843 h 2.32388 l 0.72755,-2.64678 h 3.86658 l 0.67942,2.64678 h 2.32187 l -3.47554,-12.24391 h -2.91734 z m 9.95585,-12.24391 v 1.96516 h 3.20645 v 10.27875 h 2.33766 v -10.27875 h 3.20571 v -1.96516 z m 13.76365,2.35548 h 0.0336 l 1.37335,5.31157 h -2.8492 z m -5.00299,9.88843 h 2.32315 l 0.72901,-2.64678 h 3.86714 l 0.67813,2.64678 h 2.32315 l -3.47627,-12.24391 h -2.9179 z m 18.63881,0 v -5.39331 h 4.08682 v -1.96516 h -4.08682 v -2.92028 h 5.4609 v -1.96516 h -7.79911 v 12.24391 z m 14.56357,-6.12232 c 0,2.8672 -0.88312,4.32725 -2.79961,4.32725 -1.93503,0 -2.83413,-1.46005 -2.7996,-4.32725 0,-2.86775 0.8811,-4.32633 2.7996,-4.32633 1.91649,0 2.79961,1.45858 2.79961,4.32633 z m 2.33766,0 c 0,-4.00416 -1.79673,-6.29167 -5.13727,-6.29167 -3.34347,0 -5.13799,2.28751 -5.13799,6.29167 0,4.00287 1.79452,6.29167 5.13799,6.29167 3.34054,0 5.13727,-2.2888 5.13727,-6.29167 z m 4.69295,6.12232 v -4.98646 h 2.01989 l 2.30735,4.98646 h 2.59297 l -2.69417,-5.46145 c 1.49164,-0.42264 2.25298,-1.64446 2.23572,-3.15337 -0.0165,-2.01971 -1.13439,-3.62909 -3.916,-3.62909 h -4.88324 v 12.24391 z m 0,-10.34689 h 2.13818 c 1.2907,0 1.98684,0.57619 1.98684,1.73207 0,1.15294 -0.5604,1.73134 -2.39368,1.73134 h -1.73134 z m 13.97892,10.34689 h 4.05173 c 3.2419,0 5.47725,-1.79654 5.49378,-6.12232 -0.0165,-4.32633 -2.25188,-6.12159 -5.49378,-6.12159 h -4.05173 z m 2.33895,-10.27875 h 1.56052 c 2.68131,0 3.30912,1.96737 3.30912,4.15643 0,2.18906 -0.62781,4.15643 -3.30912,4.15643 h -1.56052 z m 17.83412,10.27875 v -1.96589 h -5.95297 v -3.42742 h 4.18783 v -1.96516 h -4.18783 v -2.92028 h 5.76746 v -1.96516 h -8.10567 v 12.24391 z m 4.2411,0 v -9.63441 h 0.0349 l 2.71291,9.63441 h 1.78167 l 2.74964,-9.63441 h 0.0331 v 9.63441 h 2.0333 v -12.24391 h -3.32455 l -2.37495,8.54613 h -0.0312 l -2.36025,-8.54613 h -3.28782 v 12.24391 z m 19.66263,-6.12232 c 0,2.8672 -0.87981,4.32725 -2.79924,4.32725 -1.93412,0 -2.83413,-1.46005 -2.80107,-4.32725 0,-2.86775 0.88532,-4.32633 2.80107,-4.32633 1.91943,0 2.79924,1.45858 2.79924,4.32633 z m 2.34005,0 c 0,-4.00416 -1.79637,-6.29167 -5.13929,-6.29167 -3.34292,0 -5.13744,2.28751 -5.13744,6.29167 0,4.00287 1.79452,6.29167 5.13744,6.29167 3.34292,0 5.13929,-2.2888 5.13929,-6.29167 z m 10.9049,-3.07145 c -0.57674,-2.16904 -1.93412,-3.22022 -4.27416,-3.22022 -3.11884,0 -4.91704,2.28751 -4.91704,6.29167 0,4.00287 1.7982,6.29167 4.91704,6.29167 2.23902,0 3.83334,-1.08406 4.56254,-3.20424 l -2.17107,-0.57693 c -0.6943,1.44223 -1.34084,1.81675 -2.39147,1.81675 -1.7633,0 -2.61189,-1.46005 -2.57699,-4.32725 0,-2.86775 0.94777,-4.32633 2.50903,-4.32633 1.15349,0 1.88269,0.72957 2.22249,1.76422 z m 4.67275,9.19377 v -4.98646 h 2.02044 l 2.30699,4.98646 h 2.59352 l -2.69454,-5.46145 c 1.48962,-0.42264 2.25188,-1.64446 2.23718,-3.15337 -0.0184,-2.01971 -1.13696,-3.62909 -3.91783,-3.62909 h -4.88214 v 12.24391 z m 0,-10.34689 h 2.138 c 1.28941,0 1.98555,0.57619 1.98555,1.73207 0,1.15294 -0.56022,1.73134 -2.39332,1.73134 h -1.73023 z m 13.59577,0.45846 h 0.0349 l 1.3739,5.31157 h -2.85066 z m -5.00152,9.88843 h 2.32167 l 0.7292,-2.64678 h 3.8664 l 0.67777,2.64678 h 2.32352 l -3.47517,-12.24391 h -2.91679 z m 20.06304,-9.19377 c -0.57858,-2.16904 -1.93412,-3.22022 -4.276,-3.22022 -3.12067,0 -4.9152,2.28751 -4.9152,6.29167 0,4.00287 1.79453,6.29167 4.9152,6.29167 2.23902,0 3.83334,-1.08406 4.56437,-3.20424 l -2.1729,-0.57693 c -0.6943,1.44223 -1.339,1.81675 -2.39147,1.81675 -1.7633,0 -2.61005,-1.46005 -2.57699,-4.32725 0,-2.86775 0.94961,-4.32633 2.50903,-4.32633 1.15349,0 1.88452,0.72957 2.22249,1.76422 z m 3.477007,-3.05014 h -2.441067 l 3.374146,7.36068 v 4.88323 h 2.338209 v -4.88323 l 3.375984,-7.36068 h -2.441068 l -2.101265,4.85018 z"
         style="fill:none;stroke:#100f0d;stroke-width:0.27551559;stroke-linecap:butt;stroke-linejoin:miter;stroke-miterlimit:4;stroke-dasharray:none;stroke-opacity:1"
         id="path1007"
         inkscape:connector-curvature="0" />
      <path
         d="m -309.58992,-30.554078 1.13733,-1.135859 1.13347,1.132186 -1.13715,1.137328 c -1.13365,-1.133655 0,0 -1.13365,-1.133655 z m -25.80167,-22.628278 0.46066,-0.649298 1.31164,0.924263 -0.92996,1.307964 -1.30723,-0.929957 c 0.46489,-0.652972 0,0 0.46489,-0.652972 z m 22.47821,24.970895 1.37483,-0.823791 0.82287,1.376108 -1.37464,0.823755 c -0.82306,-1.376072 0,0 -0.82306,-1.376072 z m -24.58609,-21.03543 c 0,0 0,0 0.003,-0.0028 l 0.28709,-0.748484 1.49238,0.577664 -0.28709,0.747566 v 0 l -0.28764,0.7483 -1.49531,-0.573991 c 0.28708,-0.7483 0,0 0.28708,-0.7483 z m 20.78563,22.48613 1.53407,-0.460625 0.45699,1.536862 -1.53333,0.461342 c -0.45773,-1.537579 0,0 -0.45773,-1.537579 z m -21.86179,-18.161087 c 0,0 0,0 0.003,-0.0035 l 0.0948,-0.78926 1.5934,0.187902 -0.19213,1.591378 -1.59083,-0.193779 c 0.0913,-0.792751 0,0 0.0913,-0.792751 z m 17.8209,18.636774 1.60148,-0.06816 0.0637,1.597862 -1.59707,0.07246 c -0.0681,-1.60216 0,0 -0.0681,-1.60216 z m -17.80657,-14.178932 -0.0977,-0.793668 1.59009,-0.200208 0.2037,1.587153 -1.59358,0.203147 c -0.10249,-0.796424 0,0 -0.10249,-0.796424 z m 13.7721,13.649428 1.56769,0.328616 -0.32934,1.567702 -1.56621,-0.328598 c 0.32786,-1.56772 0,0 0.32786,-1.56772 z m -12.66508,-9.325119 -0.29425,-0.748484 1.49182,-0.583909 0.58961,1.486498 -1.49238,0.587032 c -0.2948,-0.741137 0,0 -0.2948,-0.741137 z m 8.88391,7.825561 1.43635,0.703116 -0.69944,1.438595 -1.43856,-0.697403 c 0.70165,-1.444308 0,0 0.70165,-1.444308 z m -6.74573,-3.91177 -0.46856,-0.649299 1.30007,-0.937671 0.93638,1.300066 -1.30374,0.939876 c -0.46415,-0.652972 0,0 -0.46415,-0.652972 z m 3.44891,1.528193 1.22329,1.034653 -1.03466,1.225493 -1.22329,-1.035388 c 1.03466,-1.224758 0,0 1.03466,-1.224758"
         style="fill:#100f0d;fill-opacity:1;fill-rule:nonzero;stroke:none;stroke-width:0.18367705"
         id="path1009"
         inkscape:connector-curvature="0" />
      <path
         d="m -309.58992,-30.554078 1.13733,-1.135859 1.13347,1.132186 -1.13715,1.137328 c -1.13365,-1.133655 0,0 -1.13365,-1.133655 z m -25.80167,-22.628278 0.46066,-0.649298 1.31164,0.924263 -0.92996,1.307964 -1.30723,-0.929957 c 0.46489,-0.652972 0,0 0.46489,-0.652972 z m 22.47821,24.970895 1.37483,-0.823791 0.82287,1.376108 -1.37464,0.823755 c -0.82306,-1.376072 0,0 -0.82306,-1.376072 z m -24.58609,-21.03543 c 0,0 0,0 0.003,-0.0028 l 0.28709,-0.748484 1.49238,0.577664 -0.28709,0.747566 v 0 l -0.28764,0.7483 -1.49531,-0.573991 c 0.28708,-0.7483 0,0 0.28708,-0.7483 z m 20.78563,22.48613 1.53407,-0.460625 0.45699,1.536862 -1.53333,0.461342 c -0.45773,-1.537579 0,0 -0.45773,-1.537579 z m -21.86179,-18.161087 c 0,0 0,0 0.003,-0.0035 l 0.0948,-0.78926 1.5934,0.187902 -0.19213,1.591378 -1.59083,-0.193779 c 0.0913,-0.792751 0,0 0.0913,-0.792751 z m 17.8209,18.636774 1.60148,-0.06816 0.0637,1.597862 -1.59707,0.07246 c -0.0681,-1.60216 0,0 -0.0681,-1.60216 z m -17.80657,-14.178932 -0.0977,-0.793668 1.59009,-0.200208 0.2037,1.587153 -1.59358,0.203147 c -0.10249,-0.796424 0,0 -0.10249,-0.796424 z m 13.7721,13.649428 1.56769,0.328616 -0.32934,1.567702 -1.56621,-0.328598 c 0.32786,-1.56772 0,0 0.32786,-1.56772 z m -12.66508,-9.325119 -0.29425,-0.748484 1.49182,-0.583909 0.58961,1.486498 -1.49238,0.587032 c -0.2948,-0.741137 0,0 -0.2948,-0.741137 z m 8.88391,7.825561 1.43635,0.703116 -0.69944,1.438595 -1.43856,-0.697403 c 0.70165,-1.444308 0,0 0.70165,-1.444308 z m -6.74573,-3.91177 -0.46856,-0.649299 1.30007,-0.937671 0.93638,1.300066 -1.30374,0.939876 c -0.46415,-0.652972 0,0 -0.46415,-0.652972 z m 3.44891,1.528193 1.22329,1.034653 -1.03466,1.225493 -1.22329,-1.035388 c 1.03466,-1.224758 0,0 1.03466,-1.224758 z"
         style="fill:none;stroke:#100f0d;stroke-width:0.44588524;stroke-linecap:butt;stroke-linejoin:miter;stroke-miterlimit:10;stroke-dasharray:none;stroke-opacity:1"
         id="path1011"
         inkscape:connector-curvature="0" />
      <path
         d="m -333.00875,-78.342438 -0.53946,-0.592726 1.18601,-1.080388 1.07983,1.186003 -1.18545,1.079837 c -0.54093,-0.592726 0,0 -0.54093,-0.592726 z m -2.84773,-4.442046 1.33019,0.891201 -0.88752,1.333863 -0.66932,-0.449274 v 0 l -0.66436,-0.445417 c 0.89101,-1.330373 0,0 0.89101,-1.330373 z m 5.23921,7.746764 -0.38903,-0.698892 1.39411,-0.781178 0.78063,1.401088 -1.39687,0.777873 c -0.38884,-0.698891 0,0 -0.38884,-0.698891 z m -9.31096,-9.574901 0.75198,0.268352 v 0 l 0.7584,0.268352 -0.53965,1.506703 -0.75546,-0.264679 v 0 l -0.75473,-0.272026 c 0.53946,-1.506702 0,0 0.53946,-1.506702 z m 10.85201,13.337525 c 0,0 0,0 -0.003,0.0035 l -0.20811,-0.774199 1.54546,-0.419702 0.41897,1.545459 -1.54546,0.418967 c -0.20737,-0.774015 0,0 -0.20737,-0.774015 z m -15.24795,-14.107316 1.5934,0.149881 -0.15062,1.594316 -0.80065,-0.07531 c 0,0 0,0 0.003,0.0035 l -0.80064,-0.07531 c 0.15502,-1.597072 0,0 0.15502,-1.597072 z m 15.79971,18.125802 v 0 l -0.007,-0.800648 1.60424,-0.01139 0.0123,1.597807 -1.6057,0.01139 c -0.004,-0.797159 0,0 -0.004,-0.797159 z m -20.25388,-17.797938 1.58348,-0.246128 0.24539,1.58348 -1.58642,0.241168 c -0.24245,-1.57852 0,0 -0.24245,-1.57852 z m 19.74014,21.809445 0.20811,-0.774199 1.54766,0.415478 -0.41823,1.544724 -1.54565,-0.411804 c 0.20811,-0.774199 0,0 0.20811,-0.774199 z m -23.97412,-20.407438 0.74118,-0.310782 -0.005,-0.0035 0.7412,-0.309312 0.6234,1.475845 -1.47725,0.623584 c -0.62351,-1.475845 0,0 -0.62351,-1.475845 z m 22.40644,24.134797 0.40831,-0.693749 1.3818,0.81571 -0.81497,1.381986 -1.37905,-0.81075 c 0.40391,-0.693197 0,0 0.40391,-0.693197 z m -26.16893,-21.724771 1.27712,-0.967243 0.97077,1.272882 -1.27642,0.966508 c -0.97147,-1.272147 0,0 -0.97147,-1.272147 z m 23.1096,25.495844 1.13292,-1.133471 1.13366,1.133471 -1.13366,1.13292 c -1.13292,-1.13292 0,0 -1.13292,-1.13292"
         style="fill:#100f0d;fill-opacity:1;fill-rule:nonzero;stroke:none;stroke-width:0.18367705"
         id="path1013"
         inkscape:connector-curvature="0" />
      <path
         d="m -333.00875,-78.342438 -0.53946,-0.592726 1.18601,-1.080388 1.07983,1.186003 -1.18545,1.079837 c -0.54093,-0.592726 0,0 -0.54093,-0.592726 z m -2.84773,-4.442046 1.33019,0.891201 -0.88752,1.333863 -0.66932,-0.449274 v 0 l -0.66436,-0.445417 c 0.89101,-1.330373 0,0 0.89101,-1.330373 z m 5.23921,7.746764 -0.38903,-0.698892 1.39411,-0.781178 0.78063,1.401088 -1.39687,0.777873 c -0.38884,-0.698891 0,0 -0.38884,-0.698891 z m -9.31096,-9.574901 0.75198,0.268352 v 0 l 0.7584,0.268352 -0.53965,1.506703 -0.75546,-0.264679 v 0 l -0.75473,-0.272026 c 0.53946,-1.506702 0,0 0.53946,-1.506702 z m 10.85201,13.337525 c 0,0 0,0 -0.003,0.0035 l -0.20811,-0.774199 1.54546,-0.419702 0.41897,1.545459 -1.54546,0.418967 c -0.20737,-0.774015 0,0 -0.20737,-0.774015 z m -15.24795,-14.107316 1.5934,0.149881 -0.15062,1.594316 -0.80065,-0.07531 c 0,0 0,0 0.003,0.0035 l -0.80064,-0.07531 c 0.15502,-1.597072 0,0 0.15502,-1.597072 z m 15.79971,18.125802 v 0 l -0.007,-0.800648 1.60424,-0.01139 0.0123,1.597807 -1.6057,0.01139 c -0.004,-0.797159 0,0 -0.004,-0.797159 z m -20.25388,-17.797938 1.58348,-0.246128 0.24539,1.58348 -1.58642,0.241168 c -0.24245,-1.57852 0,0 -0.24245,-1.57852 z m 19.74014,21.809445 0.20811,-0.774199 1.54766,0.415478 -0.41823,1.544724 -1.54565,-0.411804 c 0.20811,-0.774199 0,0 0.20811,-0.774199 z m -23.97412,-20.407438 0.74118,-0.310782 -0.005,-0.0035 0.7412,-0.309312 0.6234,1.475845 -1.47725,0.623584 c -0.62351,-1.475845 0,0 -0.62351,-1.475845 z m 22.40644,24.134797 0.40831,-0.693749 1.3818,0.81571 -0.81497,1.381986 -1.37905,-0.81075 c 0.40391,-0.693197 0,0 0.40391,-0.693197 z m -26.16893,-21.724771 1.27712,-0.967243 0.97077,1.272882 -1.27642,0.966508 c -0.97147,-1.272147 0,0 -0.97147,-1.272147 z m 23.1096,25.495844 1.13292,-1.133471 1.13366,1.133471 -1.13366,1.13292 c -1.13292,-1.13292 0,0 -1.13292,-1.13292 z"
         style="fill:none;stroke:#100f0d;stroke-width:0.44588524;stroke-linecap:butt;stroke-linejoin:miter;stroke-miterlimit:10;stroke-dasharray:none;stroke-opacity:1"
         id="path1015"
         inkscape:connector-curvature="0" />
    </g>
  </g>
</svg>
