<?xml version="1.0" encoding="UTF-8" standalone="no"?>
<!-- Created with Inkscape (http://www.inkscape.org/) -->

<svg
   xmlns:dc="http://purl.org/dc/elements/1.1/"
   xmlns:cc="http://creativecommons.org/ns#"
   xmlns:rdf="http://www.w3.org/1999/02/22-rdf-syntax-ns#"
   xmlns:svg="http://www.w3.org/2000/svg"
   xmlns="http://www.w3.org/2000/svg"
   xmlns:sodipodi="http://sodipodi.sourceforge.net/DTD/sodipodi-0.dtd"
   xmlns:inkscape="http://www.inkscape.org/namespaces/inkscape"
   width="210mm"
   height="297mm"
   viewBox="0 0 210 297"
   version="1.1"
   id="svg4727"
   inkscape:version="0.92.3 (2405546, 2018-03-11)"
   sodipodi:docname="logo-color.svg">
  <defs
     id="defs4721" />
  <sodipodi:namedview
     id="base"
     pagecolor="#ffffff"
     bordercolor="#666666"
     borderopacity="1.0"
     inkscape:pageopacity="0.0"
     inkscape:pageshadow="2"
     inkscape:zoom="0.35"
     inkscape:cx="-195.71429"
     inkscape:cy="560"
     inkscape:document-units="mm"
     inkscape:current-layer="layer1"
     showgrid="false"
     inkscape:window-width="1871"
     inkscape:window-height="1019"
     inkscape:window-x="1969"
     inkscape:window-y="27"
     inkscape:window-maximized="1" />
  <metadata
     id="metadata4724">
    <rdf:RDF>
      <cc:Work
         rdf:about="">
        <dc:format>image/svg+xml</dc:format>
        <dc:type
           rdf:resource="http://purl.org/dc/dcmitype/StillImage" />
        <dc:title></dc:title>
      </cc:Work>
    </rdf:RDF>
  </metadata>
  <g
     inkscape:label="Layer 1"
     inkscape:groupmode="layer"
     id="layer1">
    <g
       id="g4036"
       transform="matrix(0.70569084,0,0,0.70569084,3098.9995,1352.1562)">
      <g
         transform="matrix(0.27290379,-0.12680636,0.12680636,0.27290379,-4442.0001,-1735.8656)"
         id="XMLID_50_-9-3-9-3">
        <path
           style="clip-rule:evenodd;fill:#ffffff;fill-rule:evenodd"
           inkscape:connector-curvature="0"
           id="XMLID_77_-9-5-0-4"
           d="m 545.1,277.9 c 0,-2.5 -2,-4.6 -4.6,-4.6 -2.5,0 -4.6,2.1 -4.6,4.6 0,2.5 2.1,4.6 4.6,4.6 2.5,0 4.6,-2.1 4.6,-4.6 z" />
        <path
           style="clip-rule:evenodd;fill:#ffffff;fill-rule:evenodd"
           inkscape:connector-curvature="0"
           id="XMLID_84_-4-9-8-5"
           d="m 523.9,195.4 c 0,-1.3 -1.1,-2.4 -2.4,-2.4 -1.3,0 -2.4,1.1 -2.4,2.4 0,1.3 1.1,2.4 2.4,2.4 1.3,0 2.4,-1.1 2.4,-2.4 z" />
        <path
           style="clip-rule:evenodd;fill:#fbe006;fill-rule:evenodd"
           inkscape:connector-curvature="0"
           id="XMLID_320_-5-4-9-8"
           d="m 651.7,225.5 c 0,52 -41,94.4 -92.4,96.7 -1.5,0.1 -3,0.1 -4.4,0.1 -53.5,0 -96.8,-43.4 -96.8,-96.9 0,-53.5 43.4,-96.8 96.8,-96.8 19,0 36.7,5.5 51.6,14.9 27.2,17.2 45.2,47.5 45.2,82 z" />
        <path
           style="clip-rule:evenodd;fill:#fdba12;fill-rule:evenodd"
           inkscape:connector-curvature="0"
           id="XMLID_293_-9-8-8-5"
           d="m 651.7,225.5 c 0,52 -41,94.4 -92.4,96.7 -32.2,-14.9 -54.5,-47.4 -54.5,-85.2 0,-51.8 42,-93.8 93.8,-93.8 2.7,0 5.3,0.1 7.9,0.3 27.2,17.2 45.2,47.5 45.2,82 z" />
        <ellipse
           style="clip-rule:evenodd;fill:#e69519;fill-rule:evenodd"
           id="XMLID_1_-3-4-8-7"
           transform="matrix(0.8765,-0.4813,0.4813,0.8765,-68.2029,318.5268)"
           cx="586.79999"
           cy="292.20001"
           rx="9"
           ry="6.9000001" />
        <ellipse
           style="clip-rule:evenodd;fill:#e69519;fill-rule:evenodd"
           id="XMLID_97_-5-6-0-3"
           transform="matrix(0.8765,-0.4813,0.4813,0.8765,-56.77,317.2418)"
           cx="590"
           cy="269.29999"
           rx="5.8000002"
           ry="4.4000001" />
        <ellipse
           style="clip-rule:evenodd;fill:#e69519;fill-rule:evenodd"
           id="XMLID_181_-7-9-3-3"
           transform="matrix(0.9743,-0.2251,0.2251,0.9743,-25.7476,129.4875)"
           cx="554.90002"
           cy="177.60001"
           rx="5.8000002"
           ry="4.4000001" />
        <ellipse
           style="clip-rule:evenodd;fill:#e69519;fill-rule:evenodd"
           id="XMLID_144_-0-2-7-8"
           transform="matrix(0.8765,-0.4813,0.4813,0.8765,-61.776,300.8989)"
           cx="555.70001"
           cy="270.89999"
           rx="3.9000001"
           ry="3" />
        <ellipse
           style="clip-rule:evenodd;fill:#e69519;fill-rule:evenodd"
           id="XMLID_276_-8-9-0-9"
           transform="matrix(0.8344,0.5511,-0.5511,0.8344,188.623,-286.8842)"
           cx="571.79999"
           cy="170.5"
           rx="3.9000001"
           ry="3" />
        <ellipse
           style="clip-rule:evenodd;fill:#e69519;fill-rule:evenodd"
           id="XMLID_291_-1-0-6-5"
           transform="matrix(0.06944824,0.9976,-0.9976,0.06944824,813.5508,-423.6727)"
           cx="633.90002"
           cy="224.2"
           rx="8.5"
           ry="3.7" />
        <ellipse
           style="clip-rule:evenodd;fill:#e69519;fill-rule:evenodd"
           id="XMLID_292_-9-3-9-5"
           transform="matrix(0.0694482,0.9976,-0.9976,0.0694482,794.4949,-420.9914)"
           cx="622.90002"
           cy="215.39999"
           rx="4.6999998"
           ry="2.5999999" />
      </g>
      <path
         d="m -4239.7338,-1707.4336 -3.5519,1.4631 -1.4625,-3.5383 3.5527,-1.4665 c 1.4617,3.5417 0,0 1.4617,3.5417 z m 36.1782,73.6051 -1.6122,1.0101 -2.0465,-3.2429 3.2521,-2.0332 2.0315,3.2514 c -1.6249,1.0146 0,0 -1.6249,1.0146 z m -26.6951,-75.7257 -3.7897,0.5566 -0.5534,-3.7916 3.7892,-0.5567 c 0.5539,3.7917 0,0 0.5539,3.7917 z m 34.957,68.9748 c 0,0 0,0 -0.01,0 l -1.3202,1.3884 -2.7633,-2.6439 1.3194,-1.3863 v 0 l 1.3212,-1.3874 2.7732,2.6385 c -1.32,1.3879 0,0 -1.32,1.3879 z m -25.2396,-68.6896 -3.8078,-0.3909 0.4014,-3.8107 3.8069,0.3887 c -0.4005,3.8129 0,0 -0.4005,3.8129 z m 31.5822,60.1327 c 0,0 0,0 -0.011,0 l -0.9332,1.6547 -3.3438,-1.8763 1.8839,-3.3356 3.3328,1.887 c -0.9288,1.6657 0,0 -0.9288,1.6657 z m -22.2286,-57.4753 -3.5966,-1.3188 1.3253,-3.5845 3.5908,1.3053 c -1.3195,3.598 0,0 -1.3195,3.598 z m 26.2866,47.6249 -0.5124,1.841 -3.6926,-1.0169 1.0065,-3.6893 3.703,1.0137 c -0.5045,1.8515 0,0 -0.5045,1.8515 z m -17.8694,-42.7552 -3.158,-2.1634 2.165,-3.1573 3.1548,2.1619 c -2.1618,3.1588 0,0 -2.1618,3.1588 z m 19.3937,32.197 -0.037,1.9217 -3.8278,-0.08 0.063,-3.8212 3.8319,0.074 c -0.029,1.9059 0,0 -0.029,1.9059 z m -12.4253,-25.419 -2.5246,-2.8693 2.8632,-2.5329 2.5348,2.8587 c -2.8734,2.5435 0,0 -2.8734,2.5435 z m 11.2974,14.8207 0.4383,1.8627 -3.7291,0.8765 -0.8737,-3.7279 3.7392,-0.878 c 0.4253,1.8667 0,0 0.4253,1.8667 z m -6.2089,-6.5363 -1.7503,-3.4054 3.4075,-1.7552 1.7496,3.4071 c -3.4068,1.7535 0,0 -3.4068,1.7535"
         style="fill:#b3b3b3;fill-opacity:1;fill-rule:nonzero;stroke:none;stroke-width:0.43895733"
         id="path1009-2-7-2-2-3"
         inkscape:connector-curvature="0" />
      <path
         d="m -4300.0709,-1734.5704 0.4844,1.8531 -3.709,0.9713 -0.9701,-3.7083 3.7072,-0.9708 c 0.4875,1.8547 0,0 0.4875,1.8547 z m 1.1005,12.5618 -1.8271,-3.362 3.3583,-1.839 0.9185,1.6935 v 0 l 0.9122,1.6798 c -3.3619,1.8277 0,0 -3.3619,1.8277 z m -2.4969,-22.21 0.048,1.9109 -3.8176,0.1072 -0.098,-3.8318 3.8198,-0.097 c 0.048,1.9108 0,0 0.048,1.9108 z m 9.0881,30.5965 -1.2941,-1.4022 v 0 l -1.3077,-1.4093 2.8136,-2.5908 1.3056,1.3983 v 0 l 1.2958,1.4131 c -2.8132,2.5909 0,0 -2.8132,2.5909 z m -8.1764,-40.2706 c 0,0 0,0 0.011,0 l -0.4183,1.8696 -3.7369,-0.8259 0.8274,-3.7362 3.7362,0.8275 c -0.4196,1.8685 0,0 -0.4196,1.8685 z m 16.6277,46.7764 -3.2066,-2.0848 2.0874,-3.2077 1.6112,1.0475 c 0,0 0,0 0,-0.011 l 1.6113,1.0476 c -2.0997,3.2087 0,0 -2.0997,3.2087 z m -13.338,-55.8948 v 0 l -0.873,1.7028 -3.4085,-1.7555 1.7464,-3.3959 3.4116,1.7571 c -0.8763,1.6916 0,0 -0.8763,1.6916 z m 23.1303,60.1417 -3.625,-1.2355 1.2371,-3.6241 3.6257,1.2493 c -1.2378,3.6103 0,0 -1.2378,3.6103 z m -17.5929,-68.0633 -1.2994,1.408 -2.8152,-2.5963 2.5989,-2.8059 2.815,2.5862 c -1.2993,1.408 0,0 -1.2993,1.408 z m 28.1105,69.7923 -1.9136,-0.1644 0.01,0.013 -1.9121,-0.1674 0.3175,-3.8156 3.8188,0.3187 c -0.3173,3.8157 0,0 -0.3173,3.8157 z m -20.6574,-75.9433 -1.6339,1.0156 -2.0201,-3.2595 3.2581,-2.0214 2.0198,3.246 c -1.6239,1.0193 0,0 -1.6239,1.0193 z m 31.2952,75.0154 -3.7763,0.6308 -0.643,-3.7713 3.7741,-0.63 c 0.6452,3.7705 0,0 0.6452,3.7705 z m -20.6361,-79.6043 -3.6555,1.1426 -1.1423,-3.6569 3.6564,-1.1406 c 1.1414,3.6549 0,0 1.1414,3.6549"
         style="fill:#b3b3b3;fill-opacity:1;fill-rule:nonzero;stroke:none;stroke-width:0.43895733"
         id="path1013-9-4-7-1-8"
         inkscape:connector-curvature="0" />
      <g
         transform="matrix(0.23533074,-0.10934781,0.10934781,0.23533074,-4579.0945,-1676.8917)"
         id="XMLID_321_-9-5-7-6">
        <path
           style="clip-rule:evenodd;fill:#002932;fill-rule:evenodd"
           inkscape:connector-curvature="0"
           id="XMLID_183_-7-39-79-0"
           d="m 1209,642.5 c 0,0 0,0 0,0 0,0 0,0 0,0 z m 0.1,0 z m 0.1,0.1 c 0,0 0,0 0,0 0,0 0,0 0,0 z m 0,0 c 0,0 0.1,0 0,0 0.1,0 0,0 0,0 z m 0.1,0.1 c 0,0 0,0 0,0 0,0 0,0 0,0 z m 0.1,0 c 0,0.1 0,0.1 0,0 0,0.1 0,0.1 0,0 z m 0.1,0.1 c 0,0 0,0 0,0 0,0 0,0 0,0 z m 0,0.1 c 0.1,0 0.1,0 0,0 0.1,0 0.1,0 0,0 z m 0.1,0 c 0,0 0.1,0.1 0.1,0.1 0,0 -0.1,-0.1 -0.1,-0.1 z m 0.1,0.1 c 0,0 0.1,0.1 0.1,0.1 0,0 0,-0.1 -0.1,-0.1 z m 0.2,0.1 c 0,0 0.1,0.1 0.1,0.1 0,0 -0.1,-0.1 -0.1,-0.1 z m 0.2,0.1 c 0,0 0.1,0.1 0.1,0.1 -0.1,0 -0.1,0 -0.1,-0.1 z m 0.1,0.1 c 0,0 0.1,0.1 0.1,0.1 0,0 0,0 -0.1,-0.1 z m 0.2,0.1 c 0,0 0.1,0.1 0.1,0.1 0,0 -0.1,0 -0.1,-0.1 z m 0.1,0.2 c 0,0 0.1,0 0,0 0.1,0 0,0 0,0 z m 0.1,0 c 0,0 0,0 0,0 0,0 0,0 0,0 z m 0.1,0.1 c 0,0 0,0 0,0 0,0 0,0 0,0 z m 0.1,0 c 0,0 0,0.1 0,0 0,0.1 0,0 0,0 z m 0,0.1 c 0.1,0 0.1,0 0,0 0.1,0 0.1,0 0,0 z m 0.1,0 c 0,0 0,0.1 0,0 0,0.1 0,0 0,0 z m 0.1,0.1 c 0,0 0,0 0,0 0,0 0,0 0,0 z m 0.1,0.1 c 0,0 0,0 0,0 0,0 0,0 0,0 z m 0.1,0 c 0,0 0,0 0,0 0,0 0,0 0,0 z m 0,0.1 c 0,0 0.1,0 0,0 0.1,0 0,0 0,0 z m 0.2,0.1 z" />
        <path
           style="clip-rule:evenodd;fill:#ffffff;fill-rule:evenodd"
           inkscape:connector-curvature="0"
           id="XMLID_208_-8-1-7-3"
           d="m 1197.5,544.2 c 0,-2.1 -1.7,-3.7 -3.7,-3.7 -2,0 -3.7,1.7 -3.7,3.7 0,2 1.7,3.7 3.7,3.7 2.1,0.1 3.7,-1.6 3.7,-3.7 z" />
        <path
           style="clip-rule:evenodd;fill:#ffffff;fill-rule:evenodd"
           inkscape:connector-curvature="0"
           id="XMLID_220_-2-8-6-3"
           d="m 1200.7,637.8 c 0,-1.1 -0.9,-1.9 -1.9,-1.9 -1.1,0 -1.9,0.9 -1.9,1.9 0,1 0.9,1.9 1.9,1.9 1.1,0.1 1.9,-0.8 1.9,-1.9 z" />
        <path
           style="clip-rule:evenodd;fill:#ffffff;fill-rule:evenodd"
           inkscape:connector-curvature="0"
           id="XMLID_222_-5-8-2-6"
           d="m 1205.5,634 c 0,-0.7 -0.5,-1.2 -1.2,-1.2 -0.7,0 -1.2,0.5 -1.2,1.2 0,0.7 0.5,1.2 1.2,1.2 0.7,0 1.2,-0.6 1.2,-1.2 z" />
        <path
           style="clip-rule:evenodd;fill:#2ca089;fill-rule:evenodd"
           inkscape:connector-curvature="0"
           id="XMLID_345_-3-7-7-1"
           d="m 1250.2,529.3 c -6.3,-1.8 -12.9,-2.7 -19.7,-2.7 -39.8,0 -72,32.3 -72,72 0,19.2 7.5,36.6 19.7,49.5 16.7,-2.1 33,-7.7 46.7,-15.3 35.3,-20.4 44.2,-69.3 25.3,-103.5 z" />
        <path
           style="clip-rule:evenodd;fill:#217867;fill-rule:evenodd"
           inkscape:connector-curvature="0"
           id="XMLID_346_-4-0-1-8"
           d="m 1250.2,529.3 c 18.9,34.2 10,83.2 -25.4,103.5 -13.7,7.6 -30,13.2 -46.7,15.3 13.1,13.9 31.7,22.6 52.4,22.6 39.8,0 72,-32.3 72,-72 0,-33.1 -22.1,-60.9 -52.3,-69.4 z" />
        <ellipse
           style="clip-rule:evenodd;fill:#165044;fill-rule:evenodd"
           id="XMLID_294_-9-5-5-7"
           transform="matrix(-0.836,-0.5487,0.5487,-0.836,1871.5499,1681.7513)"
           cx="1187.1"
           cy="561.20001"
           rx="6.8000002"
           ry="10.6" />
        <ellipse
           style="clip-rule:evenodd;fill:#165044;fill-rule:evenodd"
           id="XMLID_347_-0-2-8-0"
           transform="matrix(-0.836,-0.5487,0.5487,-0.836,1979.8463,1877.329)"
           cx="1270.4"
           cy="642.79999"
           rx="4.4000001"
           ry="6.9000001" />
        <ellipse
           style="clip-rule:evenodd;fill:#165044;fill-rule:evenodd"
           id="XMLID_349_-2-7-84-5"
           transform="matrix(0.8577,-0.5142,0.5142,0.8577,-112.2571,743.1868)"
           cx="1286.3"
           cy="574.40002"
           rx="4.4000001"
           ry="6.9000001" />
        <ellipse
           style="clip-rule:evenodd;fill:#165044;fill-rule:evenodd"
           id="XMLID_348_-0-9-5-1"
           transform="matrix(-0.836,-0.5487,0.5487,-0.836,1989.2606,1850.8737)"
           cx="1271.2"
           cy="628.20001"
           rx="2.2"
           ry="3.5" />
        <ellipse
           style="clip-rule:evenodd;fill:#165044;fill-rule:evenodd"
           id="XMLID_342_-1-1-6-1"
           transform="matrix(-0.836,-0.5487,0.5487,-0.836,1855.2086,1720.7258)"
           cx="1184.7"
           cy="583.09998"
           rx="3.4000001"
           ry="5.3000002" />
        <ellipse
           style="clip-rule:evenodd;fill:#165044;fill-rule:evenodd"
           id="XMLID_344_-9-9-5-0"
           transform="matrix(-0.8046,0.5938,-0.5938,-0.8046,2511.1396,430.611)"
           cx="1184.7"
           cy="628.40002"
           rx="3.4000001"
           ry="5.3000002" />
        <ellipse
           style="clip-rule:evenodd;fill:#165044;fill-rule:evenodd"
           id="XMLID_343_-6-63-6-3"
           transform="matrix(-0.836,-0.5487,0.5487,-0.836,1921.9252,1717.7891)"
           cx="1217.6"
           cy="571.70001"
           rx="1.9"
           ry="2.9000001" />
      </g>
      <g
         transform="matrix(0.36061751,0.52637388,-0.52637388,0.36061751,-3947.9032,-1616.4186)"
         id="g3424-2-6-8-0">
        <path
           d="m -456.22705,185.24207 4.9e-4,-0.0153 c -1.84616,-5.57678 0.36128,-15.7152 6.07728,-25.80347 5.7313,-10.08779 13.29763,-17.14362 19.00906,-18.40302 l 0.0153,4.8e-4 -4.9e-4,0.0153 c 1.84616,5.57678 -0.36128,15.7152 -6.07728,25.80347 -5.71599,10.08827 -13.29763,17.14362 -19.00905,18.40302 z"
           id="XMLID_300_-1-8-4-0"
           inkscape:connector-curvature="0"
           style="clip-rule:evenodd;fill:#ed1c24;fill-rule:evenodd;stroke:none;stroke-width:0.579;stroke-miterlimit:4;stroke-dasharray:none;stroke-opacity:1" />
        <path
           d="m -465.57069,195.16911 c 0.0122,-0.38282 -0.28388,-0.71411 -0.68201,-0.72676 -0.38282,-0.0122 -0.71412,0.28388 -0.72676,0.68201 -0.0122,0.38282 0.28387,0.71411 0.68201,0.72676 0.39812,0.0126 0.71411,-0.28388 0.72676,-0.68201 z"
           id="XMLID_255_-2-4-8-4"
           inkscape:connector-curvature="0"
           style="clip-rule:evenodd;fill:#ffffff;fill-rule:evenodd;stroke:none;stroke-width:0.579;stroke-miterlimit:4;stroke-dasharray:none;stroke-opacity:1" />
        <path
           d="m -468.41615,182.44832 c 0.006,-0.19906 -0.15676,-0.37285 -0.35583,-0.37918 -0.19906,-0.006 -0.37285,0.15677 -0.37918,0.35583 -0.006,0.19907 0.15677,0.37286 0.35583,0.37918 0.21438,0.007 0.37286,-0.15676 0.37918,-0.35583 z"
           id="XMLID_262_-0-66-8-5"
           inkscape:connector-curvature="0"
           style="clip-rule:evenodd;fill:#ffffff;fill-rule:evenodd;stroke:none;stroke-width:0.579;stroke-miterlimit:4;stroke-dasharray:none;stroke-opacity:1" />
        <path
           d="m -446.56263,188.85997 c 0.006,-0.19907 -0.15676,-0.37286 -0.35583,-0.37918 -0.19906,-0.006 -0.37286,0.15676 -0.37918,0.35583 -0.006,0.19906 0.15677,0.37285 0.35583,0.37918 0.19907,0.006 0.37237,-0.14145 0.37918,-0.35583 z"
           id="XMLID_264_-7-7-3-4"
           inkscape:connector-curvature="0"
           style="clip-rule:evenodd;fill:#ffffff;fill-rule:evenodd;stroke:none;stroke-width:0.579;stroke-miterlimit:4;stroke-dasharray:none;stroke-opacity:1" />
        <path
           d="m -449.37543,183.31379 -3.34707,-4.16829 -5.26001,-0.88752 c 0,0 -10.81087,4.48492 -12.92667,14.15108 0,0 3.03321,-3.32182 4.30078,-4.13992 0,0 -5.6929,9.84375 -3.24771,20.20662 10.19419,-2.92572 15.97751,-12.72062 15.97751,-12.72062 -0.0941,1.5145 -1.48692,5.79279 -1.48692,5.79279 7.38281,-6.58649 5.99009,-18.23414 5.99009,-18.23414 z"
           id="XMLID_297_-3-2-8-2"
           inkscape:connector-curvature="0"
           style="clip-rule:evenodd;fill:#ffc907;fill-rule:evenodd;stroke:none;stroke-width:0.579;stroke-miterlimit:4;stroke-dasharray:none;stroke-opacity:1" />
        <path
           d="m -452.62586,183.82366 -1.62165,-2.02885 -2.56134,-0.43392 c 0,0 -5.26543,2.17794 -6.30437,6.89666 0,0 1.47711,-1.62385 2.10275,-2.01783 0,0 -2.77365,4.80156 -1.58521,9.85162 4.98129,-1.43588 7.7999,-6.20536 7.7999,-6.20536 -0.0387,0.73452 -0.73361,2.82773 -0.73361,2.82773 3.58154,-3.21243 2.90353,-8.89005 2.90353,-8.89005 z"
           id="XMLID_299_-1-7-7-4"
           inkscape:connector-curvature="0"
           style="clip-rule:evenodd;fill:#f37720;fill-rule:evenodd;stroke:none;stroke-width:0.579;stroke-miterlimit:4;stroke-dasharray:none;stroke-opacity:1" />
        <path
           d="m -438.36228,154.12632 c 1.44521,0.82764 1.95341,2.68316 1.12576,4.12837 -0.82813,1.46053 -2.66785,1.95389 -4.11306,1.12625 -1.44521,-0.82765 -1.9539,-2.66786 -1.12576,-4.12838 0.82765,-1.44521 2.66785,-1.95389 4.11306,-1.12624 z"
           id="XMLID_303_-1-4-5-9"
           inkscape:connector-curvature="0"
           style="fill:none;stroke:none;stroke-width:0.579;stroke-miterlimit:4;stroke-dasharray:none;stroke-opacity:1" />
        <path
           d="m -467.55085,171.13299 1.26438,0.72993 c 0.15069,0.0814 0.20561,0.28243 0.12419,0.43313 l -6.60879,11.65404 c -0.0814,0.15069 -0.28243,0.20562 -0.43313,0.12419 l -1.26437,-0.72993 c -0.1507,-0.0814 -0.20563,-0.28244 -0.1242,-0.43314 l 6.59347,-11.65452 c 0.0967,-0.15021 0.29775,-0.20513 0.44845,-0.1237 z"
           id="XMLID_306_-9-1-2-9"
           inkscape:connector-curvature="0"
           style="clip-rule:evenodd;fill:#00318c;fill-opacity:1;fill-rule:evenodd;stroke:none;stroke-width:0.579;stroke-miterlimit:4;stroke-dasharray:none;stroke-opacity:1" />
        <path
           d="m -466.66297,171.65169 2.3546,-4.15577 c 0.0484,-0.0751 0.0207,-0.16795 -0.0544,-0.21632 l -0.24111,-0.13029 c -0.0751,-0.0484 -0.16795,-0.0207 -0.21633,0.0544 l -2.35459,4.15577 z"
           id="XMLID_307_-0-0-4-9"
           inkscape:connector-curvature="0"
           style="clip-rule:evenodd;fill:#004884;fill-rule:evenodd;stroke:none;stroke-width:0.579;stroke-miterlimit:4;stroke-dasharray:none;stroke-opacity:1" />
        <path
           d="m -465.41526,167.59871 1.08403,0.61691 c 0.10524,0.0647 0.14729,0.18862 0.0826,0.29386 l -0.66576,1.17444 c -0.0647,0.10525 -0.18862,0.1473 -0.29386,0.0826 l -1.08403,-0.61691 c -0.10524,-0.0647 -0.14729,-0.18861 -0.0826,-0.29386 l 0.66576,-1.17444 c 0.0494,-0.10573 0.18862,-0.14729 0.29386,-0.0826 z"
           id="XMLID_308_-5-0-5-4"
           inkscape:connector-curvature="0"
           style="clip-rule:evenodd;fill:#007cc4;fill-rule:evenodd;stroke:none;stroke-width:0.579;stroke-miterlimit:4;stroke-dasharray:none;stroke-opacity:1" />
        <path
           d="m -466.68116,169.81173 1.08403,0.61691 c 0.10525,0.0647 0.14729,0.18862 0.0826,0.29386 l -0.66576,1.17445 c -0.0647,0.10524 -0.18861,0.14729 -0.29386,0.0826 l -1.08403,-0.61691 c -0.10524,-0.0647 -0.14729,-0.18861 -0.0826,-0.29386 l 0.66576,-1.17444 c 0.0494,-0.10573 0.18862,-0.14729 0.29386,-0.0826 z"
           id="XMLID_309_-6-6-0-9"
           inkscape:connector-curvature="0"
           style="clip-rule:evenodd;fill:#0064b1;fill-rule:evenodd;stroke:none;stroke-width:0.579;stroke-miterlimit:4;stroke-dasharray:none;stroke-opacity:1" />
        <path
           d="m -474.20291,183.18418 0.96347,0.55177 c 0.0904,0.0489 0.11764,0.15701 0.0693,0.23212 l -0.81185,1.43038 c -0.0489,0.0904 -0.15702,0.11764 -0.23213,0.0693 l -0.96347,-0.55176 c -0.0904,-0.0489 -0.11764,-0.15702 -0.0693,-0.23212 l 0.81185,-1.43039 c 0.0489,-0.0904 0.15702,-0.11763 0.23212,-0.0693 z"
           id="XMLID_310_-7-4-5-8"
           inkscape:connector-curvature="0"
           style="clip-rule:evenodd;fill:#00589e;fill-rule:evenodd;stroke:none;stroke-width:0.579;stroke-miterlimit:4;stroke-dasharray:none;stroke-opacity:1" />
        <path
           d="m -467.91578,175.38261 c 3.67391,-3.22482 7.9435,-4.45338 12.64061,-4.18154 v 0 c -0.78805,2.61141 -1.2961,5.09375 -1.48962,7.32551 v 0 c -4.68131,-0.28666 -8.74626,1.25497 -12.4605,3.8194 l -2.00254,-1.13659 z"
           id="XMLID_311_-7-4-7-1"
           inkscape:connector-curvature="0"
           style="clip-rule:evenodd;fill:#00318c;fill-opacity:1;fill-rule:evenodd;stroke:none;stroke-width:0.579;stroke-miterlimit:4;stroke-dasharray:none;stroke-opacity:1" />
        <path
           d="m -441.82593,190.29801 c 0.88873,-4.81546 -0.23119,-9.1276 -2.85055,-13.04284 v 0 c -1.84195,2.01078 -3.70478,3.71434 -5.52435,5.02074 v 0 c 2.63516,3.90042 3.38758,8.20088 3.07563,12.71277 l 2.00253,1.13659 z"
           id="XMLID_312_-4-3-3-6"
           inkscape:connector-curvature="0"
           style="clip-rule:evenodd;fill:#00318c;fill-opacity:1;fill-rule:evenodd;stroke:none;stroke-width:0.579;stroke-miterlimit:4;stroke-dasharray:none;stroke-opacity:1" />
        <path
           d="m -439.66993,187.08628 1.26438,0.72993 c 0.15069,0.0814 0.20562,0.28244 0.12419,0.43313 l -6.62409,11.65356 c -0.0814,0.15069 -0.28244,0.20561 -0.43314,0.12419 l -1.26486,-0.71463 c -0.15069,-0.0814 -0.20562,-0.28243 -0.12419,-0.43313 l 6.60878,-11.65404 c 0.0977,-0.18083 0.28341,-0.23624 0.44893,-0.13901 z"
           id="XMLID_313_-0-7-2-3"
           inkscape:connector-curvature="0"
           style="clip-rule:evenodd;fill:#00318c;fill-opacity:1;fill-rule:evenodd;stroke:none;stroke-width:0.579;stroke-miterlimit:4;stroke-dasharray:none;stroke-opacity:1" />
        <path
           d="m -438.78156,187.58967 2.3546,-4.15577 c 0.0484,-0.0751 0.0207,-0.16795 -0.0544,-0.21632 l -0.24111,-0.13029 c -0.0751,-0.0484 -0.16795,-0.0207 -0.21632,0.0545 l -2.3546,4.15576 z"
           id="XMLID_314_-6-3-7-9"
           inkscape:connector-curvature="0"
           style="clip-rule:evenodd;fill:#004884;fill-rule:evenodd;stroke:none;stroke-width:0.579;stroke-miterlimit:4;stroke-dasharray:none;stroke-opacity:1" />
        <path
           d="m -437.54916,183.5362 1.08403,0.61691 c 0.10524,0.0647 0.14729,0.18862 0.0826,0.29386 l -0.66576,1.17445 c -0.0647,0.10524 -0.18862,0.14729 -0.29386,0.0826 l -1.08403,-0.61691 c -0.10525,-0.0647 -0.14729,-0.18861 -0.0826,-0.29386 l 0.66577,-1.17444 c 0.0647,-0.10525 0.20393,-0.1468 0.29386,-0.0826 z"
           id="XMLID_315_-4-47-21-3"
           inkscape:connector-curvature="0"
           style="clip-rule:evenodd;fill:#007cc4;fill-rule:evenodd;stroke:none;stroke-width:0.579;stroke-miterlimit:4;stroke-dasharray:none;stroke-opacity:1" />
        <path
           d="m -438.79975,185.74972 1.08403,0.6169 c 0.10524,0.0647 0.14729,0.18862 0.0826,0.29386 l -0.66576,1.17445 c -0.0646,0.10524 -0.18862,0.14728 -0.29386,0.0826 l -1.08403,-0.61691 c -0.10524,-0.0647 -0.14729,-0.18862 -0.0826,-0.29385 l 0.66576,-1.17445 c 0.0494,-0.10573 0.18813,-0.13198 0.29386,-0.0826 z"
           id="XMLID_316_-7-2-3-3"
           inkscape:connector-curvature="0"
           style="clip-rule:evenodd;fill:#005497;fill-rule:evenodd;stroke:none;stroke-width:0.579;stroke-miterlimit:4;stroke-dasharray:none;stroke-opacity:1" />
        <path
           d="m -446.32198,199.13747 0.96347,0.55177 c 0.0904,0.0489 0.11764,0.15701 0.0693,0.23212 l -0.81185,1.43038 c -0.0489,0.0904 -0.15702,0.11764 -0.23212,0.0693 l -0.96348,-0.55177 c -0.0904,-0.0489 -0.11763,-0.15702 -0.0693,-0.23212 l 0.81185,-1.43038 c 0.0489,-0.0904 0.15701,-0.11764 0.23212,-0.0693 z"
           id="XMLID_317_-4-1-4-4"
           inkscape:connector-curvature="0"
           style="clip-rule:evenodd;fill:#00589e;fill-rule:evenodd;stroke:none;stroke-width:0.579;stroke-miterlimit:4;stroke-dasharray:none;stroke-opacity:1" />
        <path
           d="m -475.0646,185.70128 c 0.49554,2.25365 -0.37028,4.41807 -1.74094,6.55112 0.17502,-0.68421 0.22705,-1.35699 -0.0435,-2.00936 -1.84514,3.55882 -4.23083,6.76326 -6.49596,10.03283 1.64801,-3.6264 3.19078,-7.31746 5.29186,-10.7302 -0.69248,0.0853 -1.24155,0.48172 -1.73279,0.98727 1.11472,-2.27914 2.53739,-4.11931 4.72129,-4.83166 z"
           id="XMLID_318_-8-7-9-6"
           inkscape:connector-curvature="0"
           style="clip-rule:evenodd;fill:#ffc907;fill-rule:evenodd;stroke:none;stroke-width:0.579;stroke-miterlimit:4;stroke-dasharray:none;stroke-opacity:1" />
        <path
           d="m -447.12292,201.67183 c 0.49555,2.25365 -0.37027,4.41807 -1.74093,6.55112 0.17502,-0.68421 0.22705,-1.35699 -0.0435,-2.00936 -1.84514,3.55882 -4.23083,6.76326 -6.49597,10.03283 1.64802,-3.6264 3.19079,-7.31745 5.29187,-10.7302 -0.69248,0.0853 -1.24155,0.48172 -1.73279,0.98727 1.11423,-2.26383 2.5369,-4.10399 4.72128,-4.83166 z"
           id="XMLID_319_-5-9-4-1"
           inkscape:connector-curvature="0"
           style="clip-rule:evenodd;fill:#ffc907;fill-rule:evenodd;stroke:none;stroke-width:0.579;stroke-miterlimit:4;stroke-dasharray:none;stroke-opacity:1" />
      </g>
      <g
         transform="translate(-3232.304,-1183.9981)"
         id="g1337-2-4">
        <path
           inkscape:connector-curvature="0"
           id="path1013-9-4-0-2-9-7"
           style="fill:#b3b3b3;fill-opacity:1;fill-rule:nonzero;stroke:none;stroke-width:0.43895733"
           d="m -1036.0412,-602.90469 3.8006,-0.46393 0.4762,3.79591 -3.7981,0.4633 z"
           sodipodi:nodetypes="ccccc" />
        <path
           inkscape:connector-curvature="0"
           id="path1013-9-4-0-2-5-7-8"
           style="fill:#b3b3b3;fill-opacity:1;fill-rule:nonzero;stroke:none;stroke-width:0.43895733"
           d="m -1026.148,-604.14956 3.8113,-0.36478 0.377,3.80705 -3.8088,0.3642 z"
           sodipodi:nodetypes="ccccc" />
        <path
           inkscape:connector-curvature="0"
           id="path1013-9-4-0-2-8-4-6"
           style="fill:#b3b3b3;fill-opacity:1;fill-rule:nonzero;stroke:none;stroke-width:0.43895733"
           d="m -1016.5756,-605.02658 3.8128,-0.34943 0.3618,3.80851 -3.8103,0.34888 z"
           sodipodi:nodetypes="ccccc" />
        <path
           inkscape:connector-curvature="0"
           id="path1013-9-4-0-2-8-6-3-3"
           style="fill:#b3b3b3;fill-opacity:1;fill-rule:nonzero;stroke:none;stroke-width:0.43895733"
           d="m -1006.6476,-605.68563 3.8205,-0.25272 0.2656,3.81643 -3.818,0.25222 z"
           sodipodi:nodetypes="ccccc" />
      </g>
    </g>
  </g>
</svg>
